<svg height="68" overflow="visible" viewBox="-4 -4 44 68" width="44" xmlns="http://www.w3.org/2000/svg"><g><defs><path id="path-1745313172691579" d="M0 18 C0 8.0588745036 8.0588745036 0 18 0 C18 0 42.00000000000002 0 42.00000000000002 0 C51.94112549640002 0 60.00000000000002 8.0588745036 60.00000000000002 18 C60.00000000000002 18 60.00000000000002 18 60.00000000000002 18 C60.00000000000002 27.941125496399998 51.94112549640002 36 42.00000000000002 36 C42.00000000000002 36 18 36 18 36 C8.0588745036 36 0 27.941125496399998 0 18 C0 18 0 18 0 18 Z" vector-effect="non-scaling-stroke"/></defs> <path style="stroke: rgb(212, 31, 53); stroke-width: 4; stroke-linecap: butt; stroke-linejoin: miter; fill: rgba(0, 0, 0, 0.5); transform-box: fill-box; transform-origin: center center; transform: rotate(90deg);" d="M-12 30 C-12 20.058874503600002 -3.9411254963999998 12 6 12 C6 12 30 12 30 12 C39.9411254964 12 48 20.058874503600002 48 30 C48 30 48 30 48 30 C48 39.9411254964 39.9411254964 48 30 48 C30 48 6 48 6 48 C-3.9411254963999998 48 -12 39.9411254964 -12 30 C-12 30 -12 30 -12 30 Z" vector-effect="non-scaling-stroke"/></g></svg>