<svg version="1.2" xmlns="http://www.w3.org/2000/svg" xmlns:xlink="http://www.w3.org/1999/xlink" overflow="visible" preserveAspectRatio="none" viewBox="0 0 480 720" width="480" height="720"><g transform="translate(0, 0)"><defs><path id="path-1745585762912833" d="M0 1498 C0 1498 480 1498 480 1498 C480 1498 480 2180 480 2180 C480 2180 245.49073359829592 2216.8386203926048 245.49073359829592 2216.8386203926048 C245.49073359829592 2216.8386203926048 231.1797779110376 2218.9410935246165 219 2217 C206.8202220889624 2215.0589064753835 196.7716219541455 2209.0742462941394 196.7716219541455 2209.0742462941394 C196.7716219541455 2209.0742462941394 1 2104 0 2104 C-1 2104 0 1498 0 1498 Z" vector-effect="non-scaling-stroke"/></defs><g transform="translate(0.4444444444444445, -1498)"><path style="stroke: rgb(140, 140, 140); stroke-width: 0; stroke-linecap: butt; stroke-linejoin: miter; fill: rgb(0, 0, 0);" d="M0 1498 C0 1498 480 1498 480 1498 C480 1498 480 2180 480 2180 C480 2180 245.49073359829592 2216.8386203926048 245.49073359829592 2216.8386203926048 C245.49073359829592 2216.8386203926048 231.1797779110376 2218.9410935246165 219 2217 C206.8202220889624 2215.0589064753835 196.7716219541455 2209.0742462941394 196.7716219541455 2209.0742462941394 C196.7716219541455 2209.0742462941394 1 2104 0 2104 C-1 2104 0 1498 0 1498 Z" vector-effect="non-scaling-stroke"/></g></g></svg>