<svg height="54" overflow="visible" viewBox="-2 -2 221 54" width="221" xmlns="http://www.w3.org/2000/svg"><g><defs><path id="path-1745313172685566" d="M0 25 C0 11.192881255000001 11.192881255000001 0 25 0 C25 0 192.0000000000001 0 192.0000000000001 0 C205.8071187450001 0 217.0000000000001 11.192881255000001 217.0000000000001 25 C217.0000000000001 25 217.0000000000001 25 217.0000000000001 25 C217.0000000000001 38.807118745 205.8071187450001 50 192.0000000000001 50 C192.0000000000001 50 25 50 25 50 C11.192881255000001 50 0 38.807118745 0 25 C0 25 0 25 0 25 Z" vector-effect="non-scaling-stroke"/></defs> <path style="stroke: rgb(212, 31, 53); stroke-width: 2; stroke-linecap: butt; stroke-linejoin: miter; fill: rgb(255, 255, 255);" d="M0 25 C0 11.192881255000001 11.192881255000001 0 25 0 C25 0 192.0000000000001 0 192.0000000000001 0 C205.8071187450001 0 217.0000000000001 11.192881255000001 217.0000000000001 25 C217.0000000000001 25 217.0000000000001 25 217.0000000000001 25 C217.0000000000001 38.807118745 205.8071187450001 50 192.0000000000001 50 C192.0000000000001 50 25 50 25 50 C11.192881255000001 50 0 38.807118745 0 25 C0 25 0 25 0 25 Z" vector-effect="non-scaling-stroke"/></g></svg>