<svg height="14" overflow="visible" viewBox="0 -2 144 14" width="144" xmlns="http://www.w3.org/2000/svg"><g><defs><path id="path-1745815093707463" d="M0 4.999999999999999 C0 2.2385762509999996 2.2385762509999996 0 4.999999999999999 0 C4.999999999999999 0 15.000000000000004 0 15.000000000000004 0 C17.761423749000002 0 20.000000000000004 2.2385762509999996 20.000000000000004 4.999999999999999 C20.000000000000004 4.999999999999999 20.000000000000004 4.999999999999999 20.000000000000004 4.999999999999999 C20.000000000000004 7.761423748999999 17.761423749000002 9.999999999999998 15.000000000000004 9.999999999999998 C15.000000000000004 9.999999999999998 4.999999999999999 9.999999999999998 4.999999999999999 9.999999999999998 C2.2385762509999996 9.999999999999998 0 7.761423748999999 0 4.999999999999999 C0 4.999999999999999 0 4.999999999999999 0 4.999999999999999 Z" vector-effect="non-scaling-stroke"/></defs> <path style="stroke: rgb(140, 140, 140); stroke-width: 0; stroke-linecap: butt; stroke-linejoin: miter; fill: rgb(212, 31, 53);" d="M0 5 C0 2.238576251 2.238576251 0 5 0 C5 0 15 0 15 0 C17.761423749 0 20 2.238576251 20 5 C20 5 20 5 20 5 C20 7.761423749 17.761423749 10 15 10 C15 10 5 10 5 10 C2.238576251 10 0 7.761423749 0 5 C0 5 0 5 0 5 Z" vector-effect="non-scaling-stroke"/></g><g><defs><path id="path-1745815093707461" d="M0 4.999999999999999 C0 2.2385762509999996 2.2385762509999996 0 4.999999999999999 0 C4.999999999999999 0 15.000000000000004 0 15.000000000000004 0 C17.761423749000002 0 20.000000000000004 2.2385762509999996 20.000000000000004 4.999999999999999 C20.000000000000004 4.999999999999999 20.000000000000004 4.999999999999999 20.000000000000004 4.999999999999999 C20.000000000000004 7.761423748999999 17.761423749000002 9.999999999999998 15.000000000000004 9.999999999999998 C15.000000000000004 9.999999999999998 4.999999999999999 9.999999999999998 4.999999999999999 9.999999999999998 C2.2385762509999996 9.999999999999998 0 7.761423748999999 0 4.999999999999999 C0 4.999999999999999 0 4.999999999999999 0 4.999999999999999 Z" vector-effect="non-scaling-stroke"/></defs> <path style="stroke: rgb(212, 31, 53); stroke-width: 2; stroke-linecap: butt; stroke-linejoin: miter; fill: rgb(255, 255, 255);" d="M61 5 C61 2.238576251 63.238576251 0 66 0 C66 0 76 0 76 0 C78.761423749 0 81 2.238576251 81 5 C81 5 81 5 81 5 C81 7.761423749 78.761423749 10 76 10 C76 10 66 10 66 10 C63.238576251 10 61 7.761423749 61 5 C61 5 61 5 61 5 Z" vector-effect="non-scaling-stroke"/></g><g><defs><path id="path-1745815093707459" d="M0 4.999999999999999 C0 2.2385762509999996 2.2385762509999996 0 4.999999999999999 0 C4.999999999999999 0 15.000000000000004 0 15.000000000000004 0 C17.761423749000002 0 20.000000000000004 2.2385762509999996 20.000000000000004 4.999999999999999 C20.000000000000004 4.999999999999999 20.000000000000004 4.999999999999999 20.000000000000004 4.999999999999999 C20.000000000000004 7.761423748999999 17.761423749000002 9.999999999999998 15.000000000000004 9.999999999999998 C15.000000000000004 9.999999999999998 4.999999999999999 9.999999999999998 4.999999999999999 9.999999999999998 C2.2385762509999996 9.999999999999998 0 7.761423748999999 0 4.999999999999999 C0 4.999999999999999 0 4.999999999999999 0 4.999999999999999 Z" vector-effect="non-scaling-stroke"/></defs> <path style="stroke: rgb(212, 31, 53); stroke-width: 2; stroke-linecap: butt; stroke-linejoin: miter; fill: rgb(255, 255, 255);" d="M30 5 C30 2.238576251 32.238576251 0 35 0 C35 0 45 0 45 0 C47.761423749 0 50 2.238576251 50 5 C50 5 50 5 50 5 C50 7.761423749 47.761423749 10 45 10 C45 10 35 10 35 10 C32.238576251 10 30 7.761423749 30 5 C30 5 30 5 30 5 Z" vector-effect="non-scaling-stroke"/></g><g><defs><path id="path-1745815093706457" d="M0 4.999999999999999 C0 2.2385762509999996 2.2385762509999996 0 4.999999999999999 0 C4.999999999999999 0 15.000000000000004 0 15.000000000000004 0 C17.761423749000002 0 20.000000000000004 2.2385762509999996 20.000000000000004 4.999999999999999 C20.000000000000004 4.999999999999999 20.000000000000004 4.999999999999999 20.000000000000004 4.999999999999999 C20.000000000000004 7.761423748999999 17.761423749000002 9.999999999999998 15.000000000000004 9.999999999999998 C15.000000000000004 9.999999999999998 4.999999999999999 9.999999999999998 4.999999999999999 9.999999999999998 C2.2385762509999996 9.999999999999998 0 7.761423748999999 0 4.999999999999999 C0 4.999999999999999 0 4.999999999999999 0 4.999999999999999 Z" vector-effect="non-scaling-stroke"/></defs> <path style="stroke: rgb(212, 31, 53); stroke-width: 2; stroke-linecap: butt; stroke-linejoin: miter; fill: rgb(255, 255, 255);" d="M122 5 C122 2.238576251 124.238576251 0 127 0 C127 0 137 0 137 0 C139.761423749 0 142 2.238576251 142 5 C142 5 142 5 142 5 C142 7.761423749 139.761423749 10 137 10 C137 10 127 10 127 10 C124.238576251 10 122 7.761423749 122 5 C122 5 122 5 122 5 Z" vector-effect="non-scaling-stroke"/></g><g><defs><path id="path-1745815093706455" d="M0 4.999999999999999 C0 2.2385762509999996 2.2385762509999996 0 4.999999999999999 0 C4.999999999999999 0 15.000000000000004 0 15.000000000000004 0 C17.761423749000002 0 20.000000000000004 2.2385762509999996 20.000000000000004 4.999999999999999 C20.000000000000004 4.999999999999999 20.000000000000004 4.999999999999999 20.000000000000004 4.999999999999999 C20.000000000000004 7.761423748999999 17.761423749000002 9.999999999999998 15.000000000000004 9.999999999999998 C15.000000000000004 9.999999999999998 4.999999999999999 9.999999999999998 4.999999999999999 9.999999999999998 C2.2385762509999996 9.999999999999998 0 7.761423748999999 0 4.999999999999999 C0 4.999999999999999 0 4.999999999999999 0 4.999999999999999 Z" vector-effect="non-scaling-stroke"/></defs> <path style="stroke: rgb(212, 31, 53); stroke-width: 2; stroke-linecap: butt; stroke-linejoin: miter; fill: rgb(255, 255, 255);" d="M91 5 C91 2.238576251 93.238576251 0 96 0 C96 0 106 0 106 0 C108.761423749 0 111 2.238576251 111 5 C111 5 111 5 111 5 C111 7.761423749 108.761423749 10 106 10 C106 10 96 10 96 10 C93.238576251 10 91 7.761423749 91 5 C91 5 91 5 91 5 Z" vector-effect="non-scaling-stroke"/></g></svg>