<svg height="676" overflow="visible" viewBox="0 0 1480 676" width="1480" xmlns="http://www.w3.org/2000/svg"><g><defs><path id="path-1745313172741723" d="M0 0 C0 0 1443.9999999999986 0 1443.9999999999986 0 C1443.9999999999986 0 1443.9999999999986 495.00000000000006 1443.9999999999986 495.00000000000006 C1443.9999999999986 495.00000000000006 0 495.00000000000006 0 495.00000000000006 C0 495.00000000000006 0 0 0 0 Z" vector-effect="non-scaling-stroke"/></defs> <path d="M18 180.1430992718715 C18 180.1430992718715 1461.9999999999986 180.1430992718715 1461.9999999999986 180.1430992718715 C1461.9999999999986 180.1430992718715 1461.9999999999986 675.1430992718715 1461.9999999999986 675.1430992718715 C1461.9999999999986 675.1430992718715 18 675.1430992718715 18 675.1430992718715 C18 675.1430992718715 18 180.1430992718715 18 180.1430992718715 Z" style="stroke: rgb(140, 140, 140); stroke-width: 0; stroke-linecap: butt; stroke-linejoin: miter; fill: rgb(38, 38, 38);" vector-effect="non-scaling-stroke"/></g><g><defs><path id="path-1745313172740721" d="M1446 791 C1446 791 255.51844807935277 594.5687836621016 255.51844807935277 594.5687836621016 C255.51844807935277 594.5687836621016 224 590 218 591 C212 592 190.62826609205626 602.6216527286024 190.62826609205626 602.6216527286024 C190.62826609205626 602.6216527286024 -16 713 -16 713 C-16 713 -16 1257 -16 1257 C-16 1257 1446 1257 1446 1257 C1446 1257 1446 791 1446 791 Z" vector-effect="non-scaling-stroke"/></defs> <path d="M1480 210.1430992718715 C1480 210.1430992718715 289.51844807935277 13.711882933973357 289.51844807935277 13.711882933973357 C289.51844807935277 13.711882933973357 258 9.143099271871506 252 10.143099271871506 C246 11.143099271871506 224.62826609205626 21.76475200047389 224.62826609205626 21.76475200047389 C224.62826609205626 21.76475200047389 18 132.1430992718715 18 132.1430992718715 C18 132.1430992718715 18 676.1430992718715 18 676.1430992718715 C18 676.1430992718715 1480 676.1430992718715 1480 676.1430992718715 C1480 676.1430992718715 1480 210.1430992718715 1480 210.1430992718715 Z" style="stroke: rgb(140, 140, 140); stroke-width: 0; stroke-linecap: butt; stroke-linejoin: miter; fill: rgb(38, 38, 38);" vector-effect="non-scaling-stroke"/></g><g><defs><path id="path-1745313172740719" d="M1446 527 C1446 527 255.51844807935277 693.4312163378984 255.51844807935277 693.4312163378984 C255.51844807935277 693.4312163378984 238.2225454968241 697.0132172666251 222 695 C205.7774545031759 692.9867827333749 190.62826609205635 685.3783472713976 190.62826609205635 685.3783472713976 C190.62826609205635 685.3783472713976 -16 595 -16 595 C-16 595 -16 1202 -16 1202 C-16 1202 1446 1202 1446 1202 C1446 1202 1446 527 1446 527 Z" vector-effect="non-scaling-stroke"/></defs> <path style="stroke: rgb(140, 140, 140); stroke-width: 0; stroke-linecap: butt; stroke-linejoin: miter; fill: rgb(37, 37, 37);" d="M1462 0 C1462 0 271.51844807935277 166.43121633789815 271.51844807935277 166.43121633789815 C271.51844807935277 166.43121633789815 254.2225454968241 170.01321726662536 238 168 C221.7774545031759 165.98678273337464 206.62826609205635 158.37834727139762 206.62826609205635 158.37834727139762 C206.62826609205635 158.37834727139762 0 68 0 68 C0 68 0 675 0 675 C0 675 1462 675 1462 675 C1462 675 1462 0 1462 0 Z" vector-effect="non-scaling-stroke"/></g><g><defs><path id="path-1745313172740717" d="M0 0 C0 0 1443.9999999999984 0 1443.9999999999984 0 C1443.9999999999984 0 1443.9999999999984 50.00000000000001 1443.9999999999984 50.00000000000001 C1443.9999999999984 50.00000000000001 0 50.00000000000001 0 50.00000000000001 C0 50.00000000000001 0 0 0 0 Z" vector-effect="non-scaling-stroke"/></defs> <path style="stroke: rgb(140, 140, 140); stroke-width: 0; stroke-linecap: butt; stroke-linejoin: miter; fill: rgb(38, 38, 38);" d="M18 625.1430992718715 C18 625.1430992718715 1461.9999999999984 625.1430992718715 1461.9999999999984 625.1430992718715 C1461.9999999999984 625.1430992718715 1461.9999999999984 675.1430992718715 1461.9999999999984 675.1430992718715 C1461.9999999999984 675.1430992718715 18 675.1430992718715 18 675.1430992718715 C18 675.1430992718715 18 625.1430992718715 18 625.1430992718715 Z" vector-effect="non-scaling-stroke"/></g></svg>