<svg version="1.2" xmlns="http://www.w3.org/2000/svg" xmlns:xlink="http://www.w3.org/1999/xlink" overflow="visible" preserveAspectRatio="none" viewBox="0 0 24 24" width="24" height="24"><g><path xmlns:default="http://www.w3.org/2000/svg" id="pinterest-p" d="M5.33,9.55c0,0.37,0.04,0.74,0.11,1.11c0.08,0.38,0.19,0.76,0.34,1.12c0.14,0.37,0.36,0.71,0.64,1  c0.26,0.27,0.58,0.47,0.94,0.58h0.18c0.22-0.06,0.37-0.25,0.39-0.47c0.09-0.24,0.15-0.5,0.16-0.76c-0.01-0.1-0.05-0.2-0.1-0.29  l-0.28-0.47c-0.12-0.21-0.21-0.44-0.28-0.68C7.33,10.4,7.27,10.1,7.25,9.8c-0.04-1.29,0.47-2.53,1.4-3.42  C9.58,5.46,10.84,4.97,12.13,5c1.09-0.06,2.16,0.3,3,1c0.78,0.72,1.2,1.75,1.14,2.81c0,0.33-0.03,0.67-0.07,1  c-0.05,0.4-0.12,0.8-0.21,1.19c-0.09,0.4-0.23,0.78-0.4,1.15c-0.16,0.35-0.35,0.69-0.58,1c-0.22,0.3-0.5,0.54-0.82,0.71  c-0.33,0.17-0.69,0.26-1.06,0.26c-0.42,0.02-0.83-0.13-1.14-0.41c-0.31-0.28-0.48-0.68-0.47-1.09c0.06-0.67,0.22-1.32,0.47-1.94  c0.26-0.64,0.41-1.31,0.46-2c0.02-0.39-0.11-0.77-0.35-1.07c-0.25-0.29-0.62-0.44-1-0.42C10.53,7.19,10,7.5,9.7,8  C9.36,8.46,9.17,9.03,9.16,9.62c-0.02,0.6,0.09,1.21,0.33,1.76c-0.05,0.21-0.23,0.91-0.54,2.11s-0.54,2.2-0.69,3  c-0.15,0.69-0.24,1.4-0.27,2.11c0,0.21,0.05,0.88,0.16,2l0.09,0.1l0.15-0.05c0.26-0.35,0.48-0.65,0.65-0.9  c0.18-0.26,0.34-0.53,0.48-0.81l0.33-0.65c0.11-0.24,0.2-0.49,0.27-0.74c0.11-0.35,0.18-0.59,0.21-0.74l0.24-1l0.29-1.17  c0.22,0.41,0.57,0.73,1,0.92c0.44,0.22,0.92,0.33,1.41,0.33c0.69,0.01,1.37-0.12,2-0.4c0.57-0.25,1.09-0.61,1.51-1.07  c0.41-0.47,0.74-0.99,1-1.56c0.3-0.59,0.53-1.21,0.68-1.86c0.14-0.66,0.2-1.33,0.2-2c0.02-1.07-0.29-2.11-0.88-3  c-0.57-0.86-1.37-1.55-2.3-2c-0.95-0.46-2-0.7-3.06-0.69c-0.71,0-1.41,0.09-2.1,0.27C8.97,3.93,7.75,4.67,6.79,5.7  C6.33,6.2,5.97,6.79,5.72,7.43C5.46,8.1,5.33,8.82,5.33,9.55C5.33,9.55,5.33,9.55,5.33,9.55z" style="fill: rgb(255, 255, 255);" vector-effect="non-scaling-stroke"/></g></svg>