<svg height="45.999999999999886" overflow="visible" viewBox="0 0 44 45.999999999999886" width="44" xmlns="http://www.w3.org/2000/svg"><g><defs><path id="path-1745313172555101" d="M15.335626370937728 36.28320611585528 C15.335626370937728 36.28320611585528 12.155068617429254 39.43010622024322 12.155068617429254 39.43010622024322 C11.779842854255659 39.72925572045588 11.6075461617405 40.2135452107836 11.71027463109178 40.68032785711681 C11.813003100443058 41.14711050345002 12.173044461683517 41.515904426668335 12.639742457634215 41.63239093418884 C13.106440453584913 41.74887744170932 13.59932780040209 41.592972125743756 13.912159963773098 41.22991224485808 C13.912159963773098 41.22991224485808 17.092717717281573 38.071970385717904 17.092717717281573 38.071970385717904 C17.347996741810203 37.84373300594856 17.49375346468168 37.51866919348916 17.49375346468168 37.17758825078659 C17.49375346468168 36.836507308084016 17.347996741810206 36.51144349562462 17.092717717281573 36.283206115855286 C16.86077406469455 36.04988253252338 16.544354262569914 35.91854504056389 16.21417204410965 35.91854504056389 C15.883989825649383 35.91854504056389 15.567570023524752 36.04988253252337 15.335626370937728 36.28320611585528 Z" vector-effect="non-scaling-stroke"/></defs> <path style="stroke-width: 0; stroke-linecap: butt; stroke-linejoin: miter; fill: rgb(212, 31, 53);" d="M9.478149485798554 32.484891846578535 C9.478149485798554 32.484891846578535 6.29759173229013 35.631791950966544 6.29759173229013 35.631791950966544 C5.922365969116527 35.93094145117914 5.75006927660138 36.415230941506934 5.852797745952671 36.882013587840106 C5.955526215303962 37.34879623417328 6.3155675765443675 37.71759015739167 6.782265572495135 37.83407666491212 C7.248963568445788 37.95056317243257 7.741850915262944 37.79465785646698 8.054683078633957 37.431597975581326 C8.054683078633957 37.431597975581326 11.235240832142381 34.2736561164412 11.235240832142381 34.2736561164412 C11.490519856671085 34.04541873667188 11.636276579542596 33.720354924212415 11.636276579542596 33.37927398150987 C11.636276579542596 33.03819303880732 11.490519856671085 32.71312922634786 11.235240832142381 32.484891846578535 C11.003297179555375 32.25156826324667 10.686877377430733 32.1202307712872 10.356695158970524 32.1202307712872 C10.026512940510202 32.1202307712872 9.710093138385673 32.25156826324667 9.478149485798554 32.484891846578535 Z" vector-effect="non-scaling-stroke"/></g><g><defs><path id="path-174531317255599" d="M15.335626370936797 15.16032927482418 C15.845907778662147 15.567152161391913 16.584203387085715 15.521487138985645 17.039688008863692 15.054929741101175 C17.495172630641658 14.5883723432167 17.518148091134847 13.854259889026476 17.09271771728054 13.360523250209221 C17.09271771728054 13.360523250209221 13.91215996377225 10.213623145821098 13.91215996377225 10.213623145821098 C13.684161030260269 9.956934951943463 13.356074614994528 9.809884534608415 13.011372627988438 9.809884534608415 C12.666670640982343 9.809884534608415 12.338584225716609 9.956934951943463 12.110585292204625 10.213623145821098 C11.861511454151298 10.445338695965058 11.720184770874727 10.769108910925544 11.720184770874727 11.10800528075246 C11.720184770874727 11.446901650579374 11.861511454151298 11.77067186553986 12.110585292204625 12.00238741568382 C12.110585292204625 12.00238741568382 15.335626370936797 15.16032927482418 15.335626370936797 15.16032927482418 Z" vector-effect="non-scaling-stroke"/></defs> <path style="stroke-width: 0; stroke-linecap: butt; stroke-linejoin: miter; fill: rgb(212, 31, 53);" d="M9.478149485798554 11.362015005545345 C9.988430893523969 11.768837892113083 10.726726501947496 11.723172869706787 11.182211123725438 11.256615471822329 C11.637695745503379 10.790058073937871 11.660671205996664 10.055945619747604 11.235240832142267 9.562208980930336 C11.235240832142267 9.562208980930336 8.05468307863407 6.415308876542213 8.05468307863407 6.415308876542213 C7.826684145122044 6.158620682664605 7.498597729856328 6.01157026532951 7.153895742850182 6.01157026532951 C6.809193755844149 6.01157026532951 6.481107340578433 6.158620682664605 6.2531084070664065 6.415308876542213 C6.004034569013129 6.64702442668613 5.8627078857365404 6.970794641646648 5.8627078857365404 7.3096910114735465 C5.8627078857365404 7.648587381300445 6.004034569013129 7.972357596260963 6.2531084070664065 8.204073146404994 C6.2531084070664065 8.204073146404994 9.478149485798554 11.362015005545345 9.478149485798554 11.362015005545345 Z" vector-effect="non-scaling-stroke"/></g><g><defs><path id="path-174531317255597" d="M12.744472676645698 25.738330327470017 C12.744485687458413 25.40256446470284 12.609391451323825 25.080709143476902 12.369226896848154 24.844325857323028 C12.12906234237249 24.607942571169144 11.803734547121781 24.476624970878355 11.465577076458738 24.479570285714722 C11.465577076458738 24.479570285714722 7.017244554069316 24.479570285714722 7.017244554069316 24.479570285714722 C6.359952718826857 24.540626509704573 5.857476885138623 25.088383293994315 5.857476885138623 25.743851204846138 C5.857476885138623 26.39931911569796 6.359952718826857 26.947075899987695 7.017244554069316 27.008132123977543 C7.017244554069316 27.008132123977543 11.521181232988603 27.008132123977543 11.521181232988603 27.008132123977543 C12.193624315925966 26.95279312447149 12.718663989631768 26.407791093789236 12.744472676645698 25.738330327470017 Z" vector-effect="non-scaling-stroke"/></defs> <path style="stroke-width: 0; stroke-linecap: butt; stroke-linejoin: miter; fill: rgb(212, 31, 53);" d="M6.886995791507161 21.940016058190395 C6.887008802319883 21.60425019542322 6.751914566185292 21.28239487419728 6.511750011709637 21.04601158804337 C6.2715854572338685 20.80962830188946 5.946257661983168 20.67831070159866 5.608100191320204 20.6812560164351 C5.608100191320204 20.6812560164351 1.1597676689307264 20.6812560164351 1.1597676689307264 20.6812560164351 C0.5024758336883224 20.742312240424894 0 21.290069024714626 0 21.94553693556645 C0 22.601004846418277 0.5024758336883224 23.14876163070801 1.1597676689307264 23.209817854697917 C1.1597676689307264 23.209817854697917 5.663704347850057 23.209817854697917 5.663704347850057 23.209817854697917 C6.336147430787378 23.15447885519177 6.861187104493183 22.609476824509557 6.886995791507161 21.940016058190395 Z" vector-effect="non-scaling-stroke"/></g><g><defs><path id="path-174531317255495" d="M27.80207826493111 10.787794392937611 C28.13922287728656 10.790770101261174 28.46343060491516 10.659106893008303 28.70183726564845 10.422395463197875 C28.940243926381747 10.185684033387442 29.072850052947487 9.863781639693803 29.069853033811974 9.529034351182352 C29.069853033811974 9.529034351182352 29.069853033811974 5.057123676525513 29.069853033811974 5.057123676525513 C29.072850052947487 4.722376388014062 28.940243926381747 4.4004739943204205 28.70183726564845 4.163762564509992 C28.46343060491516 3.927051134699563 28.13922287728656 3.795387926446691 27.80207826493111 3.798363634770254 C27.106888528476127 3.810165291903479 26.546189671848804 4.366877204385677 26.534303496050256 5.057123676525513 C26.534303496050256 5.057123676525513 26.534303496050256 9.529034351182354 26.534303496050256 9.529034351182354 C26.531306476914743 9.863781639693805 26.663912603480494 10.185684033387442 26.902319264213784 10.422395463197873 C27.140725924947073 10.659106893008301 27.464933652575677 10.790770101261172 27.80207826493111 10.787794392937611 Z" vector-effect="non-scaling-stroke"/></defs> <path style="stroke-width: 0; stroke-linecap: butt; stroke-linejoin: miter; fill: rgb(212, 31, 53);" d="M21.944601379794562 6.989480123658723 C22.281745992150036 6.992455831982284 22.605953719778654 6.8607926237294805 22.844360380511944 6.6240811939189825 C23.082767041245233 6.387369764108598 23.21537316781098 6.065467370414922 23.212376148675503 5.730720081903428 C23.212376148675503 5.730720081903428 23.212376148675503 1.2588094072466447 23.212376148675503 1.2588094072466447 C23.21537316781098 0.9240621187351508 23.082767041245233 0.602159725041588 22.844360380511944 0.36544829523109 C22.605953719778654 0.12873686542070573 22.281745992150036 -0.0029263428322110485 21.944601379794562 0.0000493654913498176 C21.249411643339613 0.011851022624568941 20.688712786712244 0.5685629351067973 20.676826610913736 1.2588094072466447 C20.676826610913736 1.2588094072466447 20.676826610913736 5.730720081903428 20.676826610913736 5.730720081903428 C20.673829591778258 6.065467370414922 20.806435718344005 6.387369764108598 21.044842379077295 6.6240811939189825 C21.283249039810585 6.8607926237294805 21.607456767439203 6.992455831982284 21.944601379794562 6.989480123658723 Z" vector-effect="non-scaling-stroke"/></g><g><defs><path id="path-174531317255493" d="M39.389984485757694 15.546790691152626 C39.723948764965456 15.543639552797634 40.041806958278386 15.403817650157347 40.268530158929586 15.16032927482426 C40.268530158929586 15.16032927482426 43.44908791243797 12.002387415683883 43.44908791243797 12.002387415683883 C43.704366936966586 11.77415003591453 43.85012365983806 11.449086223455108 43.85012365983806 11.108005280752517 C43.85012365983806 10.766924338049925 43.704366936966586 10.441860525590503 43.44908791243797 10.21362314582115 C43.212129164886534 9.968651331526779 42.88482679791387 9.830182298163654 42.54274016100113 9.830182298163654 C42.200653524088395 9.830182298163653 41.87335115711574 9.968651331526775 41.63639240956431 10.21362314582115 C41.63639240956431 10.21362314582115 38.45583465605593 13.360523250209289 38.45583465605593 13.360523250209289 C38.20002069174412 13.59075981790135 38.05411226585085 13.917610984736685 38.05411226585085 14.260426262516772 C38.05411226585085 14.60324154029686 38.20002069174412 14.930092707132198 38.45583465605593 15.16032927482426 C38.71015572779697 15.396685821229589 39.04187729148013 15.533920321789932 39.389984485757694 15.546790691152626 Z" vector-effect="non-scaling-stroke"/></defs> <path style="stroke-width: 0; stroke-linecap: butt; stroke-linejoin: miter; fill: rgb(212, 31, 53);" d="M33.532507600618715 11.748476421873647 C33.86647187982646 11.745325283518696 34.184330073139336 11.605503380878304 34.41105327379057 11.362015005545231 C34.41105327379057 11.362015005545231 37.591611027298995 8.20407314640488 37.591611027298995 8.20407314640488 C37.846890051827586 7.975835766635555 37.9926467746991 7.6507719541760935 37.9926467746991 7.3096910114735465 C37.9926467746991 6.968610068770886 37.846890051827586 6.643546256311538 37.591611027298995 6.415308876542213 C37.354652279747484 6.170337062247768 37.027349912774866 6.0318680288846735 36.6852632758621 6.0318680288846735 C36.34317663894933 6.0318680288846735 36.01587427197671 6.170337062247768 35.778915524425315 6.415308876542213 C35.778915524425315 6.415308876542213 32.59835777091689 9.562208980930336 32.59835777091689 9.562208980930336 C32.342543806605136 9.792445548622368 32.19663538071177 10.119296715457722 32.19663538071177 10.462111993237727 C32.19663538071177 10.804927271017846 32.342543806605136 11.1317784378532 32.59835777091689 11.362015005545231 C32.85267884265795 11.59837155195055 33.18440040634107 11.735606052510889 33.532507600618715 11.748476421873647 Z" vector-effect="non-scaling-stroke"/></g><g><defs><path id="path-174531317255391" d="M12.45921,0h-0.10571c-4.97958,0.05616 -9.44975,2.98922 -11.37814,7.46566c-1.92838,4.47644 -0.94692,9.64186 2.49816,13.14779c1.26258,1.2858 2.08359,2.92272 2.3492,4.68383c0.229,1.55861 1.60348,2.71284 3.2184,2.70265h6.93014c1.59169,-0.01214 2.94427,-1.13764 3.20666,-2.6683c0.25564,-1.76411 1.07807,-3.40386 2.3492,-4.68383c3.4712,-3.53302 4.43839,-8.74763 2.45613,-13.24213c-1.98227,-4.4945 -6.52956,-7.39725 -11.54753,-7.37132zM12.45921,19.53697c-3.03209,0 -5.76539,-1.78137 -6.92462,-4.51297c-1.15923,-2.73159 -0.51592,-5.87507 1.62977,-7.96376c2.14569,-2.08869 5.37089,-2.71096 8.17081,-1.57647c2.79992,1.13449 4.62274,3.80215 4.61799,6.75832c-0.00601,3.9908 -3.29535,7.23858 -7.38823,7.29487z" vector-effect="non-scaling-stroke"/></defs><path style="stroke-width: 0; stroke-linecap: butt; stroke-linejoin: miter; fill: rgb(212, 31, 53);" d="M12.45921,0h-0.10571c-4.97958,0.05616 -9.44975,2.98922 -11.37814,7.46566c-1.92838,4.47644 -0.94692,9.64186 2.49816,13.14779c1.26258,1.2858 2.08359,2.92272 2.3492,4.68383c0.229,1.55861 1.60348,2.71284 3.2184,2.70265h6.93014c1.59169,-0.01214 2.94427,-1.13764 3.20666,-2.6683c0.25564,-1.76411 1.07807,-3.40386 2.3492,-4.68383c3.4712,-3.53302 4.43839,-8.74763 2.45613,-13.24213c-1.98227,-4.4945 -6.52956,-7.39725 -11.54753,-7.37132zM12.45921,19.53697c-3.03209,0 -5.76539,-1.78137 -6.92462,-4.51297c-1.15923,-2.73159 -0.51592,-5.87507 1.62977,-7.96376c2.14569,-2.08869 5.37089,-2.71096 8.17081,-1.57647c2.79992,1.13449 4.62274,3.80215 4.61799,6.75832c-0.00601,3.9908 -3.29535,7.23858 -7.38823,7.29487z" transform="translate(8.999999999999886, 10) rotate(0)" vector-effect="non-scaling-stroke"/></g><g><defs><path id="path-174531317255389" d="M40.268530158929124 36.283206115857105 C39.76551366953279 35.81987568572507 38.983877848555586 35.83322985756059 38.49721387925874 36.3134688818908 C38.010549909961874 36.79370790622098 37.99229033459915 37.56968889979647 38.45583465605548 38.07197038571982 C38.45583465605548 38.07197038571982 41.63639240956384 41.22991224486016 41.63639240956384 41.22991224486016 C41.94212142348739 41.61881426039491 42.448481559841944 41.79453584499404 42.93164034700737 41.67940066955118 C43.4147991341728 41.56426549410832 43.785677332431256 41.17950085318103 43.88033118352435 40.69518889658229 C43.97498503461744 40.21087693998354 43.7759633541401 39.71630951549943 43.371242093295656 39.430106220245214 C43.371242093295656 39.430106220245214 40.268530158929124 36.283206115857105 40.268530158929124 36.283206115857105 Z" vector-effect="non-scaling-stroke"/></defs> <path style="stroke-width: 0; stroke-linecap: butt; stroke-linejoin: miter; fill: rgb(212, 31, 53);" d="M34.4110532737908 32.48489184657842 C33.908036784394426 32.02156141644639 33.12640096341727 32.03491558828193 32.639736994120426 32.51515461261215 C32.153073024823584 32.99539363694237 32.13481344946081 33.77137463051781 32.59835777091712 34.2736561164412 C32.59835777091712 34.2736561164412 35.77891552442554 37.43159797558155 35.77891552442554 37.43159797558155 C36.08464453834904 37.82049999111632 36.59100467470364 37.99622157571537 37.074163461869034 37.88108640027258 C37.55732224903443 37.76595122482968 37.928200447292966 37.38118658390238 38.02285429838605 36.896874627303646 C38.117508149479136 36.412562670704915 37.91848646900178 35.91799524622081 37.51376520815734 35.631791950966544 C37.51376520815734 35.631791950966544 34.4110532737908 32.48489184657842 34.4110532737908 32.48489184657842 Z" vector-effect="non-scaling-stroke"/></g><g><defs><path id="path-174531317255387" d="M48.57579114448956 24.479570285713038 C48.57579114448956 24.479570285713038 44.127458622100406 24.479570285713038 44.127458622100406 24.479570285713038 C43.47016678685798 24.54062650970288 42.96769095316978 25.08838329399258 42.96769095316978 25.743851204844354 C42.96769095316978 26.39931911569614 43.47016678685798 26.94707589998584 44.127458622100406 27.00813212397568 C44.127458622100406 27.00813212397568 48.57579114448956 27.00813212397568 48.57579114448956 27.00813212397568 C48.91588513548748 27.011107413970137 49.24292121896851 26.87828074512594 49.48341332103356 26.63949870286742 C49.723905423098614 26.40071666060891 49.857683342486936 26.076006022565984 49.854686744676435 25.73833032746824 C49.87833370792275 25.39586577431539 49.750799990261456 25.06012168654839 49.505269035103005 24.81845649095128 C49.25973807994455 24.576791295354166 48.92048861540359 24.453101463860158 48.57579114448956 24.479570285713038 Z" vector-effect="non-scaling-stroke"/></defs> <path style="stroke-width: 0; stroke-linecap: butt; stroke-linejoin: miter; fill: rgb(212, 31, 53);" d="M42.71831425935261 20.681256016434986 C42.71831425935261 20.681256016434986 38.26998173696347 20.681256016434986 38.26998173696347 20.681256016434986 C37.612689901720955 20.74231224042478 37.11021406803275 21.290069024714512 37.11021406803275 21.945536935566224 C37.11021406803275 22.60100484641805 37.612689901720955 23.14876163070778 38.26998173696347 23.209817854697576 C38.26998173696347 23.209817854697576 42.71831425935261 23.209817854697576 42.71831425935261 23.209817854697576 C43.05840825035045 23.212793144692114 43.385444333831515 23.07996647584787 43.62593643589662 22.84118443358932 C43.86642853796161 22.602402391330884 44.00020645734992 22.277691753287854 43.99720985953945 21.940016058190167 C44.02085682278573 21.59755150503736 43.89332310512452 21.261807417270347 43.647792149965994 21.020142221673154 C43.40226119480758 20.778477026076075 43.06301173026657 20.654787194582127 42.71831425935261 20.681256016434986 Z" vector-effect="non-scaling-stroke"/></g><g><defs><path id="path-174531317255285" d="M31.716610884635294 42.73159089116419 C31.716610884635294 42.73159089116419 23.787458163476472 42.73159089116419 23.787458163476472 42.73159089116419 C23.43749027355661 42.73157841322408 23.102015840500435 42.87036537284061 22.855597520433644 43.11710493542685 C22.609179200366864 43.363844498013115 22.472234239568497 43.69809280040691 22.475200069371645 44.04555970668061 C22.475200069371645 44.04555970668061 22.475200069371645 45.40369554120598 22.475200069371645 45.40369554120598 C22.46999395639097 46.44502041253298 23.238734697959906 47.330795735442926 24.276774740939288 47.47954543462687 C24.276774740939288 47.47954543462687 24.62152051142445 48.69413845737314 24.62152051142445 48.69413845737314 C24.806072514490825 49.347408720160566 25.406128636453698 49.798764266614675 26.089470243812904 49.798313932597026 C26.089470243812904 49.798313932597026 29.370115479074965 49.798313932597026 29.370115479074965 49.798313932597026 C30.04558464507849 49.78310119410686 30.634077296133757 49.33706449606916 30.82694438015744 48.69413845737314 C30.82694438015744 48.69413845737314 31.13832765672469 47.47954543462687 31.13832765672469 47.47954543462687 C32.18500922127054 47.33525735066952 32.961063228999336 46.4418140643078 32.95102315959831 45.39265378645374 C32.95102315959831 45.39265378645374 32.95102315959831 44.04555970668061 32.95102315959831 44.04555970668061 C32.94718607412462 43.35514018458193 32.41002779402248 42.78336263232792 31.716610884635294 42.73159089116419 Z" vector-effect="non-scaling-stroke"/></defs> <path style="stroke-width: 0; stroke-linecap: butt; stroke-linejoin: miter; fill: rgb(212, 31, 53);" d="M25.85913399949709 38.93327662188585 C25.85913399949709 38.93327662188585 17.929981278338232 38.93327662188585 17.929981278338232 38.93327662188585 C17.580013388418365 38.933264143945735 17.24453895536226 39.07205110356233 16.998120635295436 39.318790666148516 C16.751702315228613 39.565530228734815 16.614757354430253 39.89977853112862 16.617723184233455 40.247245437402285 C16.617723184233455 40.247245437402285 16.617723184233455 41.60538127192763 16.617723184233455 41.60538127192763 C16.612517071252796 42.64670614325473 17.381257812821673 43.532481466164654 18.419297855801005 43.68123116534855 C18.419297855801005 43.68123116534855 18.764043626286252 44.89582418809482 18.764043626286252 44.89582418809482 C18.948595629352553 45.54909445088231 19.548651751315447 46.00044999733632 20.231993358674686 45.999999663318704 C20.231993358674686 45.999999663318704 23.512638593936686 45.999999663318704 23.512638593936686 45.999999663318704 C24.188107759940294 45.98478692482854 24.77660041099557 45.53875022679085 24.969467495019217 44.89582418809482 C24.969467495019217 44.89582418809482 25.280850771586415 43.68123116534855 25.280850771586415 43.68123116534855 C26.32753233613232 43.5369430813912 27.10358634386114 42.64349979502947 27.093546274460095 41.5943395171754 C27.093546274460095 41.5943395171754 27.093546274460095 40.247245437402285 27.093546274460095 40.247245437402285 C27.089709188986376 39.55682591530365 26.552550908884314 38.9850483630496 25.85913399949709 38.93327662188585 Z" vector-effect="non-scaling-stroke"/></g><g><defs><path id="path-174531317255283" d="M31.371865114151046 24.336027473934948 C31.371865114151046 24.336027473934948 30.004002863516313 22.97789163940954 30.004002863516313 22.97789163940954 C30.004002863516313 22.97789163940954 26.823445110007917 26.080624724788724 26.823445110007917 26.080624724788724 C26.823445110007917 26.080624724788724 25.500066184597078 24.76665590927227 25.500066184597078 24.76665590927227 C25.500066184597078 24.76665590927227 24.132203933962344 26.135833498549918 24.132203933962344 26.135833498549918 C24.132203933962344 26.135833498549918 25.455582859373184 27.43876055931413 25.455582859373184 27.43876055931413 C25.455582859373184 27.43876055931413 26.823445110007917 28.807938148591777 26.823445110007917 28.807938148591777 C26.823445110007917 28.807938148591777 28.191307360642647 27.43876055931413 28.191307360642647 27.43876055931413 C28.191307360642647 27.43876055931413 31.371865114151046 24.336027473934948 31.371865114151046 24.336027473934948 Z" vector-effect="non-scaling-stroke"/></defs> <path style="stroke-width: 0; stroke-linecap: butt; stroke-linejoin: miter; fill: rgb(212, 31, 53);" d="M25.514388229011956 20.537713204655915 C25.514388229011956 20.537713204655915 24.146525978377213 19.179577370130573 24.146525978377213 19.179577370130573 C24.146525978377213 19.179577370130573 20.96596822486879 22.282310455509787 20.96596822486879 22.282310455509787 C20.96596822486879 22.282310455509787 19.642589299457995 20.96834163999324 19.642589299457995 20.96834163999324 C19.642589299457995 20.96834163999324 18.27472704882325 22.337519229270924 18.27472704882325 22.337519229270924 C18.27472704882325 22.337519229270924 19.598105974234045 23.64044629003513 19.598105974234045 23.64044629003513 C19.598105974234045 23.64044629003513 20.96596822486879 25.009623879312812 20.96596822486879 25.009623879312812 C20.96596822486879 25.009623879312812 22.333830475503532 23.64044629003513 22.333830475503532 23.64044629003513 C22.333830475503532 23.64044629003513 25.514388229011956 20.537713204655915 25.514388229011956 20.537713204655915 Z" vector-effect="non-scaling-stroke"/></g></svg>