<svg height="80" overflow="visible" viewBox="0 0 50 80" width="50" xmlns="http://www.w3.org/2000/svg"><g><defs><path id="path-1745313172727682" d="M0 20 C0 8.954305004 8.954305004000002 0 20.000000000000004 0 C20.000000000000004 0 50.000000000000014 0 50.000000000000014 0 C50.000000000000014 0 50.000000000000014 79.99999999999983 50.000000000000014 79.99999999999983 C50.000000000000014 79.99999999999983 20.000000000000004 79.99999999999983 20.000000000000004 79.99999999999983 C8.954305004000002 79.99999999999983 0 71.04569499599982 0 59.99999999999983 C0 59.99999999999983 0 20 0 20 Z" vector-effect="non-scaling-stroke"/><filter height="114.99999999999999%" id="filter-17453131729854222" width="124%" x="-12%" y="-7.5%" vector-effect="non-scaling-stroke"><feFlood flood-opacity="0" result="backgroundFix" vector-effect="non-scaling-stroke"/><feColorMatrix in="SourceAlpha" result="hardAlpha" type="matrix" values="0 0 0 0 0 0 0 0 0 0 0 0 0 0 0 0 0 0 127 0" vector-effect="non-scaling-stroke"/><feOffset dx="0" dy="0" vector-effect="non-scaling-stroke"/><feGaussianBlur stdDeviation="2.5" vector-effect="non-scaling-stroke"/><feColorMatrix in="" result="" type="matrix" values="0 0 0 0 0  0 0 0 0 0  0 0 0 0 0  0 0 0 0.2 0" vector-effect="non-scaling-stroke"/><feBlend in2="backgroundFix" mode="normal" result="shadowOuter_1" vector-effect="non-scaling-stroke"/></filter></defs> <path style="stroke: rgb(140, 140, 140); stroke-width: 0; stroke-linecap: butt; stroke-linejoin: miter; fill: rgb(255, 255, 255); transform-box: fill-box; transform-origin: center center; transform: rotate(180deg);" d="M0 20.000000000000004 C0 8.954305004000002 8.954305004000002 0 20.000000000000004 0 C20.000000000000004 0 50 0 50 0 C50 0 50 80 50 80 C50 80 20.000000000000004 80 20.000000000000004 80 C8.954305004000002 80 0 71.045694996 0 60 C0 60 0 20.000000000000004 0 20.000000000000004 Z" vector-effect="non-scaling-stroke"/></g></svg>