<svg height="44" overflow="visible" viewBox="0 0 252.99999000006738 44" width="252.99999000006738" xmlns="http://www.w3.org/2000/svg"><g><defs><path id="path-1745313172640422" d="M90.53183333331333 26.605045253225462 C90.53183333331333 26.605045253225462 108.24183333330943 26.605045253225462 108.24183333330943 26.605045253225462 C108.24183333330943 26.605045253225462 108.24183333330943 31.078759869054462 108.24183333330943 31.078759869054462 C108.24183333330943 31.078759869054462 96.61226666664533 31.078759869054462 96.61226666664533 31.078759869054462 C96.61226666664533 31.078759869054462 96.61226666664533 36.24725592143266 96.61226666664533 36.24725592143266 C96.61226666664533 36.24725592143266 107.72739999997621 36.24725592143266 107.72739999997621 36.24725592143266 C107.72739999997621 36.24725592143266 107.72739999997621 40.61082226073556 107.72739999997621 40.61082226073556 C107.72739999997621 40.61082226073556 96.61226666664533 40.61082226073556 96.61226666664533 40.61082226073556 C96.61226666664533 40.61082226073556 96.61226666664533 46.491045638359275 96.61226666664533 46.491045638359275 C96.61226666664533 46.491045638359275 108.49483333330937 46.491045638359275 108.49483333330937 46.491045638359275 C108.49483333330937 46.491045638359275 108.49483333330937 51.13421914115148 108.49483333330937 51.13421914115148 C108.49483333330937 51.13421914115148 90.53183333331334 51.13421914115148 90.53183333331334 51.13421914115148 C90.53183333331334 51.13421914115148 90.53183333331333 26.605045253225462 90.53183333331333 26.605045253225462 Z" vector-effect="non-scaling-stroke"/></defs> <path style="stroke-width: 0; stroke-linecap: butt; stroke-linejoin: miter; fill: rgb(18, 27, 33);" d="M76.73489999998299 8.616984402079737 C76.73489999998299 8.616984402079737 94.4448999999791 8.616984402079737 94.4448999999791 8.616984402079737 C94.4448999999791 8.616984402079737 94.4448999999791 13.090699017908733 94.4448999999791 13.090699017908733 C94.4448999999791 13.090699017908733 82.81533333331498 13.090699017908733 82.81533333331498 13.090699017908733 C82.81533333331498 13.090699017908733 82.81533333331498 18.259195070286935 82.81533333331498 18.259195070286935 C82.81533333331498 18.259195070286935 93.93046666664588 18.259195070286935 93.93046666664588 18.259195070286935 C93.93046666664588 18.259195070286935 93.93046666664588 22.622761409589835 93.93046666664588 22.622761409589835 C93.93046666664588 22.622761409589835 82.81533333331498 22.622761409589835 82.81533333331498 22.622761409589835 C82.81533333331498 22.622761409589835 82.81533333331498 28.50298478721355 82.81533333331498 28.50298478721355 C82.81533333331498 28.50298478721355 94.69789999997903 28.50298478721355 94.69789999997903 28.50298478721355 C94.69789999997903 28.50298478721355 94.69789999997903 33.14615829000576 94.69789999997903 33.14615829000576 C94.69789999997903 33.14615829000576 76.73489999998299 33.14615829000576 76.73489999998299 33.14615829000576 C76.73489999998299 33.14615829000576 76.73489999998299 8.616984402079737 76.73489999998299 8.616984402079737 Z" vector-effect="non-scaling-stroke"/></g><g><defs><path id="path-1745313172640420" d="M113.2174999999749 26.59657230887732 C113.2174999999749 26.59657230887732 118.83409999997366 26.59657230887732 118.83409999997366 26.59657230887732 C118.83409999997366 26.59657230887732 131.72866666663745 41.6275755825149 131.72866666663745 41.6275755825149 C131.72866666663745 41.6275755825149 131.72866666663745 41.6275755825149 131.72866666663745 41.6275755825149 C131.72866666663745 41.6275755825149 131.61059999997084 26.596572308877324 131.61059999997084 26.596572308877324 C131.61059999997084 26.596572308877324 137.70789999996947 26.596572308877324 137.70789999996947 26.596572308877324 C137.70789999996947 26.596572308877324 137.70789999996947 51.168110918544166 137.70789999996947 51.168110918544166 C137.70789999996947 51.168110918544166 132.6478999999706 51.168110918544166 132.6478999999706 51.168110918544166 C132.6478999999706 51.168110918544166 119.42443333330688 35.71346042749853 119.42443333330688 35.71346042749853 C119.42443333330688 35.71346042749853 119.32323333330689 35.77277103793566 119.32323333330689 35.77277103793566 C119.32323333330689 35.77277103793566 119.32323333330689 51.12574619680336 119.32323333330689 51.12574619680336 C119.32323333330689 51.12574619680336 113.2427999999749 51.12574619680336 113.2427999999749 51.12574619680336 C113.2427999999749 51.12574619680336 113.2174999999749 26.59657230887732 113.2174999999749 26.59657230887732 Z" vector-effect="non-scaling-stroke"/></defs> <path style="stroke-width: 0; stroke-linecap: butt; stroke-linejoin: miter; fill: rgb(18, 27, 33);" d="M99.42056666664467 8.608511457731595 C99.42056666664467 8.608511457731595 105.03716666664343 8.608511457731595 105.03716666664343 8.608511457731595 C105.03716666664343 8.608511457731595 117.93173333330722 23.639514731369175 117.93173333330722 23.639514731369175 C117.93173333330722 23.639514731369175 117.93173333330722 23.639514731369175 117.93173333330722 23.639514731369175 C117.93173333330722 23.639514731369175 117.81366666664061 8.608511457731595 117.81366666664061 8.608511457731595 C117.81366666664061 8.608511457731595 123.91096666663924 8.608511457731595 123.91096666663924 8.608511457731595 C123.91096666663924 8.608511457731595 123.91096666663924 33.18005006739844 123.91096666663924 33.18005006739844 C123.91096666663924 33.18005006739844 118.85096666664037 33.18005006739844 118.85096666664037 33.18005006739844 C118.85096666664037 33.18005006739844 105.62749999997664 17.725399576352807 105.62749999997664 17.725399576352807 C105.62749999997664 17.725399576352807 105.52629999997666 17.784710186789937 105.52629999997666 17.784710186789937 C105.52629999997666 17.784710186789937 105.52629999997666 33.13768534565764 105.52629999997666 33.13768534565764 C105.52629999997666 33.13768534565764 99.44586666664469 33.13768534565764 99.44586666664469 33.13768534565764 C99.44586666664469 33.13768534565764 99.42056666664467 8.608511457731595 99.42056666664467 8.608511457731595 Z" vector-effect="non-scaling-stroke"/></g><g><defs><path id="path-1745313172640418" d="M166.92096666662886 48.100905064509895 C163.88496666662957 50.86308492201037 159.13699999996396 51.40535336029267 156.5479666666312 51.40535336029267 C149.31216666663283 51.40535336029267 142.14383333330116 47.397650683612525 142.14383333330116 38.93317927979971 C142.14383333330116 30.468707875986894 148.94109999996627 26.30849220103985 157.51779999996432 26.30849220103985 C160.56389110420835 26.469148770638046 163.55823002750466 27.16604293614412 166.364366666629 28.367417677642965 C166.364366666629 28.367417677642965 166.2547333332957 33.6799537839399 166.2547333332957 33.6799537839399 C163.62351222271548 32.43368884849533 160.79458999486727 31.662190996854903 157.89729999996425 31.400731754284596 C152.31443333329884 31.400731754284596 148.40136666663307 34.061236279607144 148.40136666663307 39.02638166762948 C148.40136666663307 43.991527055651815 152.1710666666322 46.39784325052954 156.8346999999645 46.39784325052954 C158.23148246246274 46.36146951318218 159.60727245485126 46.047583116841 160.8826999999636 45.47429231657999 C160.8826999999636 45.47429231657999 160.8826999999636 42.67822068168686 160.8826999999636 42.67822068168686 C160.8826999999636 42.67822068168686 157.2900999999644 42.67822068168686 157.2900999999644 42.67822068168686 C157.2900999999644 42.67822068168686 157.2900999999644 38.22145195455418 157.2900999999644 38.22145195455418 C157.2900999999644 38.22145195455418 166.93783333329557 38.22145195455418 166.93783333329557 38.22145195455418 C166.93783333329557 38.22145195455418 166.92096666662886 48.100905064509895 166.92096666662886 48.100905064509895 Z" vector-effect="non-scaling-stroke"/></defs> <path style="stroke-width: 0; stroke-linecap: butt; stroke-linejoin: miter; fill: rgb(18, 27, 33);" d="M153.12403333329934 30.112844213364156 C150.08803333330002 32.875024070864626 145.34006666663447 33.41729250914693 142.75103333330168 33.41729250914693 C135.5152333333033 33.41729250914693 128.34689999997164 29.40958983246678 128.34689999997164 20.94511842865397 C128.34689999997164 12.480647024841147 135.14416666663675 8.320431349894108 143.72086666663483 8.320431349894108 C146.76695777087883 8.481087919492303 149.76129669417514 9.177982084998376 152.5674333332995 10.379356826497222 C152.5674333332995 10.379356826497222 152.45779999996614 15.691892932794161 152.45779999996614 15.691892932794161 C149.82657888938593 14.44562799734959 146.99765666153775 13.674130145709157 144.10036666663473 13.412670903138853 C138.51749999996935 13.412670903138853 134.60443333330355 16.073175428461397 134.60443333330355 21.038320816483733 C134.60443333330355 26.00346620450607 138.37413333330267 28.4097823993838 143.03776666663498 28.4097823993838 C144.4345491291332 28.37340866203644 145.81033912152174 28.05952226569525 147.08576666663407 27.486231465434244 C147.08576666663407 27.486231465434244 147.08576666663407 24.69015983054112 147.08576666663407 24.69015983054112 C147.08576666663407 24.69015983054112 143.49316666663492 24.69015983054112 143.49316666663492 24.69015983054112 C143.49316666663492 24.69015983054112 143.49316666663492 20.233391103408437 143.49316666663492 20.233391103408437 C143.49316666663492 20.233391103408437 153.14089999996605 20.233391103408437 153.14089999996605 20.233391103408437 C153.14089999996605 20.233391103408437 153.12403333329934 30.112844213364156 153.12403333329934 30.112844213364156 Z" vector-effect="non-scaling-stroke"/></g><g><defs><path id="path-1745313172639416" d="M172.1496333332949 26.59657230887732 C172.1496333332949 26.59657230887732 178.2300666666269 26.59657230887732 178.2300666666269 26.59657230887732 C178.2300666666269 26.59657230887732 178.2300666666269 46.702869247063326 178.2300666666269 46.702869247063326 C178.2300666666269 46.702869247063326 190.66923333329078 46.702869247063326 190.66923333329078 46.702869247063326 C190.66923333329078 46.702869247063326 190.66923333329078 51.1172732524552 190.66923333329078 51.1172732524552 C190.66923333329078 51.1172732524552 172.11589999996158 51.1172732524552 172.11589999996158 51.1172732524552 C172.11589999996158 51.1172732524552 172.1496333332949 26.59657230887732 172.1496333332949 26.59657230887732 Z" vector-effect="non-scaling-stroke"/></defs> <path style="stroke-width: 0; stroke-linecap: butt; stroke-linejoin: miter; fill: rgb(18, 27, 33);" d="M158.35269999996495 8.608511457731595 C158.35269999996495 8.608511457731595 164.43313333329695 8.608511457731595 164.43313333329695 8.608511457731595 C164.43313333329695 8.608511457731595 164.43313333329695 28.7148083959176 164.43313333329695 28.7148083959176 C164.43313333329695 28.7148083959176 176.87229999996083 28.7148083959176 176.87229999996083 28.7148083959176 C176.87229999996083 28.7148083959176 176.87229999996083 33.12921240130947 176.87229999996083 33.12921240130947 C176.87229999996083 33.12921240130947 158.31896666663164 33.12921240130947 158.31896666663164 33.12921240130947 C158.31896666663164 33.12921240130947 158.35269999996495 8.608511457731595 158.35269999996495 8.608511457731595 Z" vector-effect="non-scaling-stroke"/></g><g><defs><path id="path-1745313172639414" d="M194.17749999995715 26.605045253225473 C194.17749999995715 26.605045253225473 211.7694333332866 26.605045253225473 211.7694333332866 26.605045253225473 C211.7694333332866 26.605045253225473 211.7694333332866 31.188908145580566 211.7694333332866 31.188908145580566 C211.7694333332866 31.188908145580566 200.1988999999558 31.188908145580566 200.1988999999558 31.188908145580566 C200.1988999999558 31.188908145580566 200.1988999999558 36.357404197958765 200.1988999999558 36.357404197958765 C200.1988999999558 36.357404197958765 211.28029999995334 36.357404197958765 211.28029999995334 36.357404197958765 C211.28029999995334 36.357404197958765 211.28029999995334 40.720970537261664 211.28029999995334 40.720970537261664 C211.28029999995334 40.720970537261664 200.1988999999558 40.720970537261664 200.1988999999558 40.720970537261664 C200.1988999999558 40.720970537261664 200.1988999999558 46.65203158097435 200.1988999999558 46.65203158097435 C200.1988999999558 46.65203158097435 212.00556666661987 46.65203158097435 212.00556666661987 46.65203158097435 C212.00556666661987 46.65203158097435 212.00556666661987 51.12574619680335 212.00556666661987 51.12574619680335 C212.00556666661987 51.12574619680335 194.17749999995715 51.12574619680335 194.17749999995715 51.12574619680335 C194.17749999995715 51.12574619680335 194.17749999995715 26.605045253225473 194.17749999995715 26.605045253225473 Z" vector-effect="non-scaling-stroke"/></defs> <path style="stroke-width: 0; stroke-linecap: butt; stroke-linejoin: miter; fill: rgb(18, 27, 33);" d="M180.38056666662675 8.616984402079737 C180.38056666662675 8.616984402079737 197.9724999999562 8.616984402079737 197.9724999999562 8.616984402079737 C197.9724999999562 8.616984402079737 197.9724999999562 13.20084729443483 197.9724999999562 13.20084729443483 C197.9724999999562 13.20084729443483 186.4019666666254 13.20084729443483 186.4019666666254 13.20084729443483 C186.4019666666254 13.20084729443483 186.4019666666254 18.369343346813025 186.4019666666254 18.369343346813025 C186.4019666666254 18.369343346813025 197.48336666662294 18.369343346813025 197.48336666662294 18.369343346813025 C197.48336666662294 18.369343346813025 197.48336666662294 22.73290968611593 197.48336666662294 22.73290968611593 C197.48336666662294 22.73290968611593 186.4019666666254 22.73290968611593 186.4019666666254 22.73290968611593 C186.4019666666254 22.73290968611593 186.4019666666254 28.66397072982862 186.4019666666254 28.66397072982862 C186.4019666666254 28.66397072982862 198.20863333328947 28.66397072982862 198.20863333328947 28.66397072982862 C198.20863333328947 28.66397072982862 198.20863333328947 33.137685345657616 198.20863333328947 33.137685345657616 C198.20863333328947 33.137685345657616 180.38056666662675 33.137685345657616 180.38056666662675 33.137685345657616 C180.38056666662675 33.137685345657616 180.38056666662675 8.616984402079737 180.38056666662675 8.616984402079737 Z" vector-effect="non-scaling-stroke"/></g><g><defs><path id="path-1745313172639412" d="M0,0h9.37559c7.92874,0 9.04488,5.25362 9.09449,7.02208c0.056,2.81619 -1.60289,5.36063 -4.13386,6.34058v0.09489c1.31457,0.21567 2.8689,2.80366 4.06772,5.84886l2.59606,5.69358h-6.56457l-2.15787,-4.64113c-1.65354,-4.02864 -2.71181,-5.46066 -5.07638,-5.46066h-1.24843v10.06729h-5.95276zM5.95276,10.35197h1.65354c2.48031,0 4.66299,-0.06901 4.66299,-2.89855c0,-2.58799 -2.00906,-2.71739 -4.28268,-2.7519h-2.04213z" vector-effect="non-scaling-stroke"/></defs><path style="stroke-width: 0; stroke-linecap: butt; stroke-linejoin: miter; fill: rgb(18, 27, 33);" d="M0,0h9.37559c7.92874,0 9.04488,5.25362 9.09449,7.02208c0.056,2.81619 -1.60289,5.36063 -4.13386,6.34058v0.09489c1.31457,0.21567 2.8689,2.80366 4.06772,5.84886l2.59606,5.69358h-6.56457l-2.15787,-4.64113c-1.65354,-4.02864 -2.71181,-5.46066 -5.07638,-5.46066h-1.24843v10.06729h-5.95276zM5.95276,10.35197h1.65354c2.48031,0 4.66299,-0.06901 4.66299,-2.89855c0,-2.58799 -2.00906,-2.71739 -4.28268,-2.7519h-2.04213z" transform="translate(203.00000000000006, 8) rotate(0)" vector-effect="non-scaling-stroke"/></g><g><defs><path id="path-1745313172638410" d="M0,0h0.89712c0.7572,0 0.82305,0.42222 0.87243,0.56296c-0.00224,0.22957 -0.1632,0.43356 -0.40329,0.51111v0c0.12346,0 0.2716,0.22222 0.38683,0.46667l0.24691,0.45926h-0.62551l-0.19753,-0.37778c-0.16461,-0.31852 -0.26337,-0.43704 -0.4856,-0.43704h-0.12346v0.81481h-0.5679zM0.5679,0.82963h0.15638c0.23868,0 0.45267,0 0.45267,-0.22963c0,-0.22963 -0.19753,-0.21481 -0.41152,-0.22222h-0.19753z" vector-effect="non-scaling-stroke"/></defs><path style="stroke-width: 0; stroke-linecap: butt; stroke-linejoin: miter; fill: rgb(18, 27, 33);" d="M0,0h0.89712c0.7572,0 0.82305,0.42222 0.87243,0.56296c-0.00224,0.22957 -0.1632,0.43356 -0.40329,0.51111v0c0.12346,0 0.2716,0.22222 0.38683,0.46667l0.24691,0.45926h-0.62551l-0.19753,-0.37778c-0.16461,-0.31852 -0.26337,-0.43704 -0.4856,-0.43704h-0.12346v0.81481h-0.5679zM0.5679,0.82963h0.15638c0.23868,0 0.45267,0 0.45267,-0.22963c0,-0.22963 -0.19753,-0.21481 -0.41152,-0.22222h-0.19753z" transform="translate(250.00000000000006, 10) rotate(0)" vector-effect="non-scaling-stroke"/></g><g><defs><path id="path-1745313172638408" d="M245.8063666666132 31.180435201232402 C245.8063666666132 31.180435201232402 236.9766666666151 31.180435201232402 236.9766666666151 31.180435201232402 C236.9766666666151 31.180435201232402 236.9766666666151 26.605045253225473 236.9766666666151 26.605045253225473 C236.9766666666151 26.605045253225473 260.6911999999433 26.605045253225473 260.6911999999433 26.605045253225473 C260.6911999999433 26.605045253225473 260.6911999999433 31.180435201232402 260.6911999999433 31.180435201232402 C260.6911999999433 31.180435201232402 251.8277666666119 31.180435201232402 251.8277666666119 31.180435201232402 C251.8277666666119 31.180435201232402 251.8277666666119 51.12574619680335 251.8277666666119 51.12574619680335 C251.8277666666119 51.12574619680335 245.8063666666132 51.12574619680335 245.8063666666132 51.12574619680335 C245.8063666666132 51.12574619680335 245.8063666666132 31.180435201232402 245.8063666666132 31.180435201232402 Z" vector-effect="non-scaling-stroke"/></defs> <path style="stroke-width: 0; stroke-linecap: butt; stroke-linejoin: miter; fill: rgb(18, 27, 33);" d="M232.009433333282 13.192374350086666 C232.009433333282 13.192374350086666 223.17973333328388 13.192374350086666 223.17973333328388 13.192374350086666 C223.17973333328388 13.192374350086666 223.17973333328388 8.616984402079737 223.17973333328388 8.616984402079737 C223.17973333328388 8.616984402079737 246.8942666666121 8.616984402079737 246.8942666666121 8.616984402079737 C246.8942666666121 8.616984402079737 246.8942666666121 13.192374350086666 246.8942666666121 13.192374350086666 C246.8942666666121 13.192374350086666 238.03083333328067 13.192374350086666 238.03083333328067 13.192374350086666 C238.03083333328067 13.192374350086666 238.03083333328067 33.137685345657616 238.03083333328067 33.137685345657616 C238.03083333328067 33.137685345657616 232.009433333282 33.137685345657616 232.009433333282 33.137685345657616 C232.009433333282 33.137685345657616 232.009433333282 13.192374350086666 232.009433333282 13.192374350086666 Z" vector-effect="non-scaling-stroke"/></g><g><defs><path id="path-1745313172638406" d="M2.50936,0.00002c-1.01198,-0.00453 -1.92642,0.7235 -2.31631,1.84414c-0.38989,1.12064 -0.17831,2.41281 0.53593,3.27311c0.71425,0.8603 1.79025,1.11903 2.72557,0.65535c0.93532,-0.46367 1.54543,-1.55827 1.54544,-2.77265c0.00001,-1.65247 -1.11359,-2.99379 -2.49064,-2.99996zM2.50936,5.20517c-1.03037,0 -1.86564,-1.00233 -1.86564,-2.23877c0,-1.23644 0.83528,-2.23877 1.86564,-2.23877c1.03037,0 1.86564,1.00233 1.86564,2.23877c0,1.23644 -0.83528,2.23877 -1.86564,2.23877z" vector-effect="non-scaling-stroke"/></defs><path style="stroke-width: 0; stroke-linecap: butt; stroke-linejoin: miter; fill: rgb(18, 27, 33);" d="M2.50936,0.00002c-1.01198,-0.00453 -1.92642,0.7235 -2.31631,1.84414c-0.38989,1.12064 -0.17831,2.41281 0.53593,3.27311c0.71425,0.8603 1.79025,1.11903 2.72557,0.65535c0.93532,-0.46367 1.54543,-1.55827 1.54544,-2.77265c0.00001,-1.65247 -1.11359,-2.99379 -2.49064,-2.99996zM2.50936,5.20517c-1.03037,0 -1.86564,-1.00233 -1.86564,-2.23877c0,-1.23644 0.83528,-2.23877 1.86564,-2.23877c1.03037,0 1.86564,1.00233 1.86564,2.23877c0,1.23644 -0.83528,2.23877 -1.86564,2.23877z" transform="translate(248.00000000000006, 8) rotate(0)" vector-effect="non-scaling-stroke"/></g><g><defs><path id="path-1745313172637404" d="M13.796933333330283 50.74446370113612 C13.796933333330283 50.74446370113612 35.841666666658746 49.151550163681854 35.841666666658746 49.151550163681854 C35.841666666658746 49.151550163681854 49.900033333322305 59.18351627190445 49.900033333322305 59.18351627190445 C49.900033333322305 59.18351627190445 30.891299999993176 61.98806085114573 30.891299999993176 61.98806085114573 C30.891299999993176 61.98806085114573 13.796933333330283 50.74446370113612 13.796933333330283 50.74446370113612 Z" vector-effect="non-scaling-stroke"/></defs> <path style="stroke-width: 0; stroke-linecap: butt; stroke-linejoin: miter; fill: rgb(35, 31, 32);" d="M0 32.75640284999038 C0 32.75640284999038 22.044733333328452 31.163489312536115 22.044733333328452 31.163489312536115 C22.044733333328452 31.163489312536115 36.103099999992025 41.19545542075872 36.103099999992025 41.19545542075872 C36.103099999992025 41.19545542075872 17.094366666662893 44 17.094366666662893 44 C17.094366666662893 44 0 32.75640284999038 0 32.75640284999038 Z" vector-effect="non-scaling-stroke"/></g><g><defs><path id="path-1745313172637402" d="M35.824799999992145 49.14307721933369 C35.824799999992145 49.14307721933369 49.9000333333224 59.183516271904445 49.9000333333224 59.183516271904445 C49.9000333333224 59.183516271904445 49.9000333333224 27.28288080107836 49.9000333333224 27.28288080107836 C49.9000333333224 27.28288080107836 33.99476666665922 19.76737916425957 33.99476666665922 19.76737916425957 C33.99476666665922 19.76737916425957 35.824799999992145 49.14307721933369 35.824799999992145 49.14307721933369 Z" vector-effect="non-scaling-stroke"/></defs> <path style="stroke-width: 0; stroke-linecap: butt; stroke-linejoin: miter; fill: rgb(215, 31, 48);" d="M22.027866666661765 31.155016368187958 C22.027866666661765 31.155016368187958 36.103099999992025 41.195455420758705 36.103099999992025 41.195455420758705 C36.103099999992025 41.195455420758705 36.103099999992025 9.294819949932624 36.103099999992025 9.294819949932624 C36.103099999992025 9.294819949932624 20.197833333328845 1.7793183131138335 20.197833333328845 1.7793183131138335 C20.197833333328845 1.7793183131138335 22.027866666661765 31.155016368187958 22.027866666661765 31.155016368187958 Z" vector-effect="non-scaling-stroke"/></g><g><defs><path id="path-1745313172637400" d="M59.69113333332014 17.98806085114577 C59.69113333332014 17.98806085114577 34.60196666665902 19.225110725977274 34.60196666665902 19.225110725977274 C34.60196666665902 19.225110725977274 50.30483333332221 26.664355863662617 50.30483333332221 26.664355863662617 C50.30483333332221 26.664355863662617 79.13839999998251 24.139418447910643 79.13839999998251 24.139418447910643 C79.13839999998251 24.139418447910643 59.69113333332014 17.98806085114577 59.69113333332014 17.98806085114577 Z" vector-effect="non-scaling-stroke"/></defs> <path style="stroke-width: 0; stroke-linecap: butt; stroke-linejoin: miter; fill: rgb(215, 31, 48);" d="M45.894199999989894 0 C45.894199999989894 0 20.805033333328765 1.2370498748315022 20.805033333328765 1.2370498748315022 C20.805033333328765 1.2370498748315022 36.507899999991935 8.676295012516846 36.507899999991935 8.676295012516846 C36.507899999991935 8.676295012516846 65.34146666665225 6.151357596764868 65.34146666665225 6.151357596764868 C65.34146666665225 6.151357596764868 45.894199999989894 0 45.894199999989894 0 Z" vector-effect="non-scaling-stroke"/></g><g><defs><path id="path-1745313172636398" d="M77.92399999998274 45.90641247833624 C77.92399999998274 45.90641247833624 77.30836666664953 54.67590987868287 77.30836666664953 54.67590987868287 C77.30836666664953 54.67590987868287 50.718066666655425 59.319083381475096 50.718066666655425 59.319083381475096 C50.718066666655425 59.319083381475096 50.718066666655425 27.418447910648965 50.718066666655425 27.418447910648965 C50.718066666655425 27.418447910648965 79.40826666664907 24.757943385326413 79.40826666664907 24.757943385326413 C79.40826666664907 24.757943385326413 78.78419999998253 33.51896784132488 78.78419999998253 33.51896784132488 C78.78419999998253 33.51896784132488 58.36709999998706 36.094742923165825 58.36709999998706 36.094742923165825 C58.36709999998706 36.094742923165825 58.35866666665373 37.7723859041017 58.35866666665373 37.7723859041017 C58.35866666665373 37.7723859041017 78.6661333333159 35.247448488349725 78.6661333333159 35.247448488349725 C78.6661333333159 35.247448488349725 78.04206666664938 44.16945888696324 78.04206666664938 44.16945888696324 C78.04206666664938 44.16945888696324 58.31649999998708 47.253610629693846 58.31649999998708 47.253610629693846 C58.31649999998708 47.253610629693846 58.31649999998708 48.97361833237053 58.31649999998708 48.97361833237053 C58.31649999998708 48.97361833237053 77.92399999998274 45.90641247833624 77.92399999998274 45.90641247833624 Z" vector-effect="non-scaling-stroke"/></defs> <path style="stroke-width: 0; stroke-linecap: butt; stroke-linejoin: miter; fill: rgb(215, 31, 48);" d="M64.12706666665247 27.918351627190454 C64.12706666665247 27.918351627190454 63.511433333319246 36.687849027537084 63.511433333319246 36.687849027537084 C63.511433333319246 36.687849027537084 36.921133333325145 41.33102253032931 36.921133333325145 41.33102253032931 C36.921133333325145 41.33102253032931 36.921133333325145 9.430387059503175 36.921133333325145 9.430387059503175 C36.921133333325145 9.430387059503175 65.61133333331878 6.769882534180624 65.61133333331878 6.769882534180624 C65.61133333331878 6.769882534180624 64.98726666665226 15.53090699017909 64.98726666665226 15.53090699017909 C64.98726666665226 15.53090699017909 44.570166666656775 18.106682072020035 44.570166666656775 18.106682072020035 C44.570166666656775 18.106682072020035 44.561733333323446 19.784325052955907 44.561733333323446 19.784325052955907 C44.561733333323446 19.784325052955907 64.8691999999856 17.259387637203936 64.8691999999856 17.259387637203936 C64.8691999999856 17.259387637203936 64.24513333331907 26.181398035817452 64.24513333331907 26.181398035817452 C64.24513333331907 26.181398035817452 44.5195666666568 29.265549778548056 44.5195666666568 29.265549778548056 C44.5195666666568 29.265549778548056 44.5195666666568 30.98555748122474 44.5195666666568 30.98555748122474 C44.5195666666568 30.98555748122474 64.12706666665247 27.918351627190454 64.12706666665247 27.918351627190454 Z" vector-effect="non-scaling-stroke"/></g></svg>