<svg height="44.000000000000014" overflow="visible" viewBox="0 0 252.99999000006733 44.000000000000014" width="252.99999000006733" xmlns="http://www.w3.org/2000/svg"><g><defs><path id="path-1745477551494336" d="M90.53183333331305 26.605045253225494 C90.53183333331305 26.605045253225494 108.24183333330909 26.605045253225494 108.24183333330909 26.605045253225494 C108.24183333330909 26.605045253225494 108.24183333330909 31.078759869054497 108.24183333330909 31.078759869054497 C108.24183333330909 31.078759869054497 96.61226666664503 31.078759869054497 96.61226666664503 31.078759869054497 C96.61226666664503 31.078759869054497 96.61226666664503 36.2472559214327 96.61226666664503 36.2472559214327 C96.61226666664503 36.2472559214327 107.72739999997587 36.2472559214327 107.72739999997587 36.2472559214327 C107.72739999997587 36.2472559214327 107.72739999997587 40.61082226073561 107.72739999997587 40.61082226073561 C107.72739999997587 40.61082226073561 96.61226666664503 40.61082226073561 96.61226666664503 40.61082226073561 C96.61226666664503 40.61082226073561 96.61226666664503 46.491045638359324 96.61226666664503 46.491045638359324 C96.61226666664503 46.491045638359324 108.49483333330903 46.491045638359324 108.49483333330903 46.491045638359324 C108.49483333330903 46.491045638359324 108.49483333330903 51.13421914115155 108.49483333330903 51.13421914115155 C108.49483333330903 51.13421914115155 90.53183333331306 51.13421914115155 90.53183333331306 51.13421914115155 C90.53183333331306 51.13421914115155 90.53183333331305 26.605045253225494 90.53183333331305 26.605045253225494 Z" vector-effect="non-scaling-stroke"/></defs> <path style="stroke-width: 0; stroke-linecap: butt; stroke-linejoin: miter; fill: rgb(255, 255, 255);" d="M76.7348999999831 8.616984402079709 C76.7348999999831 8.616984402079709 94.44489999997916 8.616984402079709 94.44489999997916 8.616984402079709 C94.44489999997916 8.616984402079709 94.44489999997916 13.090699017908712 94.44489999997916 13.090699017908712 C94.44489999997916 13.090699017908712 82.8153333333151 13.090699017908712 82.8153333333151 13.090699017908712 C82.8153333333151 13.090699017908712 82.8153333333151 18.25919507028692 82.8153333333151 18.25919507028692 C82.8153333333151 18.25919507028692 93.93046666664594 18.25919507028692 93.93046666664594 18.25919507028692 C93.93046666664594 18.25919507028692 93.93046666664594 22.622761409589828 93.93046666664594 22.622761409589828 C93.93046666664594 22.622761409589828 82.8153333333151 22.622761409589828 82.8153333333151 22.622761409589828 C82.8153333333151 22.622761409589828 82.8153333333151 28.502984787213535 82.8153333333151 28.502984787213535 C82.8153333333151 28.502984787213535 94.69789999997909 28.502984787213535 94.69789999997909 28.502984787213535 C94.69789999997909 28.502984787213535 94.69789999997909 33.14615829000576 94.69789999997909 33.14615829000576 C94.69789999997909 33.14615829000576 76.7348999999831 33.14615829000576 76.7348999999831 33.14615829000576 C76.7348999999831 33.14615829000576 76.7348999999831 8.616984402079709 76.7348999999831 8.616984402079709 Z" vector-effect="non-scaling-stroke"/></g><g><defs><path id="path-1745477551493334" d="M113.21749999997438 26.596572308877334 C113.21749999997438 26.596572308877334 118.8340999999731 26.596572308877334 118.8340999999731 26.596572308877334 C118.8340999999731 26.596572308877334 131.72866666663685 41.62757558251492 131.72866666663685 41.62757558251492 C131.72866666663685 41.62757558251492 131.72866666663685 41.62757558251492 131.72866666663685 41.62757558251492 C131.72866666663685 41.62757558251492 131.61059999997022 26.596572308877338 131.61059999997022 26.596572308877338 C131.61059999997022 26.596572308877338 137.70789999996884 26.596572308877338 137.70789999996884 26.596572308877338 C137.70789999996884 26.596572308877338 137.70789999996884 51.168110918544194 137.70789999996884 51.168110918544194 C137.70789999996884 51.168110918544194 132.64789999996998 51.168110918544194 132.64789999996998 51.168110918544194 C132.64789999996998 51.168110918544194 119.42443333330633 35.71346042749855 119.42443333330633 35.71346042749855 C119.42443333330633 35.71346042749855 119.32323333330635 35.772771037935684 119.32323333330635 35.772771037935684 C119.32323333330635 35.772771037935684 119.32323333330635 51.12574619680339 119.32323333330635 51.12574619680339 C119.32323333330635 51.12574619680339 113.24279999997438 51.12574619680339 113.24279999997438 51.12574619680339 C113.24279999997438 51.12574619680339 113.21749999997438 26.596572308877334 113.21749999997438 26.596572308877334 Z" vector-effect="non-scaling-stroke"/></defs> <path style="stroke-width: 0; stroke-linecap: butt; stroke-linejoin: miter; fill: rgb(255, 255, 255);" d="M99.42056666664473 8.608511457731538 C99.42056666664473 8.608511457731538 105.03716666664346 8.608511457731538 105.03716666664346 8.608511457731538 C105.03716666664346 8.608511457731538 117.93173333330719 23.639514731369125 117.93173333330719 23.639514731369125 C117.93173333330719 23.639514731369125 117.93173333330719 23.639514731369125 117.93173333330719 23.639514731369125 C117.93173333330719 23.639514731369125 117.81366666664059 8.608511457731538 117.81366666664059 8.608511457731538 C117.81366666664059 8.608511457731538 123.91096666663918 8.608511457731538 123.91096666663918 8.608511457731538 C123.91096666663918 8.608511457731538 123.91096666663918 33.1800500673984 123.91096666663918 33.1800500673984 C123.91096666663918 33.1800500673984 118.85096666664032 33.1800500673984 118.85096666664032 33.1800500673984 C118.85096666664032 33.1800500673984 105.62749999997669 17.725399576352757 105.62749999997669 17.725399576352757 C105.62749999997669 17.725399576352757 105.52629999997669 17.784710186789887 105.52629999997669 17.784710186789887 C105.52629999997669 17.784710186789887 105.52629999997669 33.137685345657594 105.52629999997669 33.137685345657594 C105.52629999997669 33.137685345657594 99.44586666664475 33.137685345657594 99.44586666664475 33.137685345657594 C99.44586666664475 33.137685345657594 99.42056666664473 8.608511457731538 99.42056666664473 8.608511457731538 Z" vector-effect="non-scaling-stroke"/></g><g><defs><path id="path-1745477551492332" d="M166.9209666666304 48.10090506450995 C163.88496666663104 50.86308492201043 159.1369999999654 51.405353360292736 156.54796666663262 51.405353360292736 C149.3121666666342 51.405353360292736 142.14383333330244 47.39765068361258 142.14383333330244 38.93317927979975 C142.14383333330244 30.46870787598693 148.94109999996763 26.30849220103988 157.51779999996575 26.30849220103988 C160.5638911042098 26.46914877063808 163.55823002750614 27.16604293614415 166.3643666666305 28.367417677643 C166.3643666666305 28.367417677643 166.2547333332972 33.679953783939936 166.2547333332972 33.679953783939936 C163.62351222271695 32.433688848495365 160.79458999486874 31.662190996854942 157.8972999999657 31.40073175428463 C152.31443333330023 31.40073175428463 148.40136666663443 34.061236279607186 148.40136666663443 39.02638166762952 C148.40136666663443 43.991527055651865 152.1710666666336 46.39784325052959 156.83469999996592 46.39784325052959 C158.2314824624642 46.361469513182236 159.6072724548527 46.047583116841054 160.88269999996504 45.47429231658004 C160.88269999996504 45.47429231658004 160.88269999996504 42.67822068168691 160.88269999996504 42.67822068168691 C160.88269999996504 42.67822068168691 157.29009999996583 42.67822068168691 157.29009999996583 42.67822068168691 C157.29009999996583 42.67822068168691 157.29009999996583 38.221451954554226 157.29009999996583 38.221451954554226 C157.29009999996583 38.221451954554226 166.93783333329708 38.221451954554226 166.93783333329708 38.221451954554226 C166.93783333329708 38.221451954554226 166.9209666666304 48.10090506450995 166.9209666666304 48.10090506450995 Z" vector-effect="non-scaling-stroke"/></defs> <path style="stroke-width: 0; stroke-linecap: butt; stroke-linejoin: miter; fill: rgb(255, 255, 255);" d="M153.1240333332995 30.112844213364156 C150.0880333333002 32.875024070864626 145.34006666663458 33.41729250914693 142.75103333330173 33.41729250914693 C135.51523333330334 33.41729250914693 128.34689999997158 29.40958983246678 128.34689999997158 20.945118428653956 C128.34689999997158 12.480647024841133 135.14416666663678 8.32043134989408 143.7208666666349 8.32043134989408 C146.76695777087895 8.481087919492282 149.76129669417526 9.177982084998348 152.56743333329962 10.379356826497201 C152.56743333329962 10.379356826497201 152.45779999996637 15.691892932794133 152.45779999996637 15.691892932794133 C149.8265788893861 14.445627997349561 146.99765666153792 13.674130145709142 144.10036666663484 13.412670903138832 C138.51749999996935 13.412670903138832 134.60443333330358 16.073175428461383 134.60443333330358 21.03832081648372 C134.60443333330358 26.00346620450607 138.37413333330278 28.409782399383786 143.0377666666351 28.409782399383786 C144.4345491291333 28.37340866203644 145.81033912152185 28.05952226569525 147.08576666663419 27.486231465434244 C147.08576666663419 27.486231465434244 147.08576666663419 24.690159830541106 147.08576666663419 24.690159830541106 C147.08576666663419 24.690159830541106 143.49316666663498 24.690159830541106 143.49316666663498 24.690159830541106 C143.49316666663498 24.690159830541106 143.49316666663498 20.233391103408422 143.49316666663498 20.233391103408422 C143.49316666663498 20.233391103408422 153.14089999996622 20.233391103408422 153.14089999996622 20.233391103408422 C153.14089999996622 20.233391103408422 153.1240333332995 30.112844213364156 153.1240333332995 30.112844213364156 Z" vector-effect="non-scaling-stroke"/></g><g><defs><path id="path-1745477551491330" d="M172.1496333332949 26.596572308877338 C172.1496333332949 26.596572308877338 178.2300666666269 26.596572308877338 178.2300666666269 26.596572308877338 C178.2300666666269 26.596572308877338 178.2300666666269 46.702869247063354 178.2300666666269 46.702869247063354 C178.2300666666269 46.702869247063354 190.66923333329078 46.702869247063354 190.66923333329078 46.702869247063354 C190.66923333329078 46.702869247063354 190.66923333329078 51.117273252455234 190.66923333329078 51.117273252455234 C190.66923333329078 51.117273252455234 172.11589999996158 51.117273252455234 172.11589999996158 51.117273252455234 C172.11589999996158 51.117273252455234 172.1496333332949 26.596572308877338 172.1496333332949 26.596572308877338 Z" vector-effect="non-scaling-stroke"/></defs> <path style="stroke-width: 0; stroke-linecap: butt; stroke-linejoin: miter; fill: rgb(255, 255, 255);" d="M158.352699999965 8.608511457731538 C158.352699999965 8.608511457731538 164.433133333297 8.608511457731538 164.433133333297 8.608511457731538 C164.433133333297 8.608511457731538 164.433133333297 28.714808395917558 164.433133333297 28.714808395917558 C164.433133333297 28.714808395917558 176.8722999999609 28.714808395917558 176.8722999999609 28.714808395917558 C176.8722999999609 28.714808395917558 176.8722999999609 33.12921240130943 176.8722999999609 33.12921240130943 C176.8722999999609 33.12921240130943 158.3189666666317 33.12921240130943 158.3189666666317 33.12921240130943 C158.3189666666317 33.12921240130943 158.352699999965 8.608511457731538 158.352699999965 8.608511457731538 Z" vector-effect="non-scaling-stroke"/></g><g><defs><path id="path-1745477551491328" d="M194.17749999995715 26.605045253225473 C194.17749999995715 26.605045253225473 211.7694333332866 26.605045253225473 211.7694333332866 26.605045253225473 C211.7694333332866 26.605045253225473 211.7694333332866 31.188908145580566 211.7694333332866 31.188908145580566 C211.7694333332866 31.188908145580566 200.1988999999558 31.188908145580566 200.1988999999558 31.188908145580566 C200.1988999999558 31.188908145580566 200.1988999999558 36.357404197958765 200.1988999999558 36.357404197958765 C200.1988999999558 36.357404197958765 211.28029999995334 36.357404197958765 211.28029999995334 36.357404197958765 C211.28029999995334 36.357404197958765 211.28029999995334 40.720970537261664 211.28029999995334 40.720970537261664 C211.28029999995334 40.720970537261664 200.1988999999558 40.720970537261664 200.1988999999558 40.720970537261664 C200.1988999999558 40.720970537261664 200.1988999999558 46.65203158097435 200.1988999999558 46.65203158097435 C200.1988999999558 46.65203158097435 212.00556666661987 46.65203158097435 212.00556666661987 46.65203158097435 C212.00556666661987 46.65203158097435 212.00556666661987 51.12574619680335 212.00556666661987 51.12574619680335 C212.00556666661987 51.12574619680335 194.17749999995715 51.12574619680335 194.17749999995715 51.12574619680335 C194.17749999995715 51.12574619680335 194.17749999995715 26.605045253225473 194.17749999995715 26.605045253225473 Z" vector-effect="non-scaling-stroke"/></defs> <path style="stroke-width: 0; stroke-linecap: butt; stroke-linejoin: miter; fill: rgb(255, 255, 255);" d="M180.3805666666268 8.616984402079709 C180.3805666666268 8.616984402079709 197.97249999995626 8.616984402079709 197.97249999995626 8.616984402079709 C197.97249999995626 8.616984402079709 197.97249999995626 13.200847294434801 197.97249999995626 13.200847294434801 C197.97249999995626 13.200847294434801 186.40196666662547 13.200847294434801 186.40196666662547 13.200847294434801 C186.40196666662547 13.200847294434801 186.40196666662547 18.369343346812997 186.40196666662547 18.369343346812997 C186.40196666662547 18.369343346812997 197.483366666623 18.369343346812997 197.483366666623 18.369343346812997 C197.483366666623 18.369343346812997 197.483366666623 22.732909686115903 197.483366666623 22.732909686115903 C197.483366666623 22.732909686115903 186.40196666662547 22.732909686115903 186.40196666662547 22.732909686115903 C186.40196666662547 22.732909686115903 186.40196666662547 28.66397072982859 186.40196666662547 28.66397072982859 C186.40196666662547 28.66397072982859 198.20863333328953 28.66397072982859 198.20863333328953 28.66397072982859 C198.20863333328953 28.66397072982859 198.20863333328953 33.13768534565759 198.20863333328953 33.13768534565759 C198.20863333328953 33.13768534565759 180.3805666666268 33.13768534565759 180.3805666666268 33.13768534565759 C180.3805666666268 33.13768534565759 180.3805666666268 8.616984402079709 180.3805666666268 8.616984402079709 Z" vector-effect="non-scaling-stroke"/></g><g><defs><path id="path-1745477551490326" d="M0,0h9.37559c7.92874,0 9.04488,5.25362 9.09449,7.02208c0.056,2.81619 -1.60289,5.36063 -4.13386,6.34058v0.09489c1.31457,0.21567 2.8689,2.80366 4.06772,5.84886l2.59606,5.69358h-6.56457l-2.15787,-4.64113c-1.65354,-4.02864 -2.71181,-5.46066 -5.07638,-5.46066h-1.24843v10.06729h-5.95276zM5.95276,10.35197h1.65354c2.48031,0 4.66299,-0.06901 4.66299,-2.89855c0,-2.58799 -2.00906,-2.71739 -4.28268,-2.7519h-2.04213z" vector-effect="non-scaling-stroke"/></defs><path style="stroke-width: 0; stroke-linecap: butt; stroke-linejoin: miter; fill: rgb(255, 255, 255);" d="M0,0h9.37559c7.92874,0 9.04488,5.25362 9.09449,7.02208c0.056,2.81619 -1.60289,5.36063 -4.13386,6.34058v0.09489c1.31457,0.21567 2.8689,2.80366 4.06772,5.84886l2.59606,5.69358h-6.56457l-2.15787,-4.64113c-1.65354,-4.02864 -2.71181,-5.46066 -5.07638,-5.46066h-1.24843v10.06729h-5.95276zM5.95276,10.35197h1.65354c2.48031,0 4.66299,-0.06901 4.66299,-2.89855c0,-2.58799 -2.00906,-2.71739 -4.28268,-2.7519h-2.04213z" transform="translate(203, 8) rotate(0)" vector-effect="non-scaling-stroke"/></g><g><defs><path id="path-1745477551490324" d="M0,0h0.89712c0.7572,0 0.82305,0.42222 0.87243,0.56296c-0.00224,0.22957 -0.1632,0.43356 -0.40329,0.51111v0c0.12346,0 0.2716,0.22222 0.38683,0.46667l0.24691,0.45926h-0.62551l-0.19753,-0.37778c-0.16461,-0.31852 -0.26337,-0.43704 -0.4856,-0.43704h-0.12346v0.81481h-0.5679zM0.5679,0.82963h0.15638c0.23868,0 0.45267,0 0.45267,-0.22963c0,-0.22963 -0.19753,-0.21481 -0.41152,-0.22222h-0.19753z" vector-effect="non-scaling-stroke"/></defs><path style="stroke-width: 0; stroke-linecap: butt; stroke-linejoin: miter; fill: rgb(255, 255, 255);" d="M0,0h0.89712c0.7572,0 0.82305,0.42222 0.87243,0.56296c-0.00224,0.22957 -0.1632,0.43356 -0.40329,0.51111v0c0.12346,0 0.2716,0.22222 0.38683,0.46667l0.24691,0.45926h-0.62551l-0.19753,-0.37778c-0.16461,-0.31852 -0.26337,-0.43704 -0.4856,-0.43704h-0.12346v0.81481h-0.5679zM0.5679,0.82963h0.15638c0.23868,0 0.45267,0 0.45267,-0.22963c0,-0.22963 -0.19753,-0.21481 -0.41152,-0.22222h-0.19753z" transform="translate(250, 10) rotate(0)" vector-effect="non-scaling-stroke"/></g><g><defs><path id="path-1745477551489322" d="M245.8063666666132 31.180435201232402 C245.8063666666132 31.180435201232402 236.9766666666151 31.180435201232402 236.9766666666151 31.180435201232402 C236.9766666666151 31.180435201232402 236.9766666666151 26.605045253225473 236.9766666666151 26.605045253225473 C236.9766666666151 26.605045253225473 260.6911999999433 26.605045253225473 260.6911999999433 26.605045253225473 C260.6911999999433 26.605045253225473 260.6911999999433 31.180435201232402 260.6911999999433 31.180435201232402 C260.6911999999433 31.180435201232402 251.8277666666119 31.180435201232402 251.8277666666119 31.180435201232402 C251.8277666666119 31.180435201232402 251.8277666666119 51.12574619680335 251.8277666666119 51.12574619680335 C251.8277666666119 51.12574619680335 245.8063666666132 51.12574619680335 245.8063666666132 51.12574619680335 C245.8063666666132 51.12574619680335 245.8063666666132 31.180435201232402 245.8063666666132 31.180435201232402 Z" vector-effect="non-scaling-stroke"/></defs> <path style="stroke-width: 0; stroke-linecap: butt; stroke-linejoin: miter; fill: rgb(255, 255, 255);" d="M232.009433333282 13.192374350086638 C232.009433333282 13.192374350086638 223.17973333328393 13.192374350086638 223.17973333328393 13.192374350086638 C223.17973333328393 13.192374350086638 223.17973333328393 8.616984402079709 223.17973333328393 8.616984402079709 C223.17973333328393 8.616984402079709 246.8942666666121 8.616984402079709 246.8942666666121 8.616984402079709 C246.8942666666121 8.616984402079709 246.8942666666121 13.192374350086638 246.8942666666121 13.192374350086638 C246.8942666666121 13.192374350086638 238.03083333328073 13.192374350086638 238.03083333328073 13.192374350086638 C238.03083333328073 13.192374350086638 238.03083333328073 33.13768534565759 238.03083333328073 33.13768534565759 C238.03083333328073 33.13768534565759 232.009433333282 33.13768534565759 232.009433333282 33.13768534565759 C232.009433333282 33.13768534565759 232.009433333282 13.192374350086638 232.009433333282 13.192374350086638 Z" vector-effect="non-scaling-stroke"/></g><g><defs><path id="path-1745477551488320" d="M2.50936,0.00002c-1.01198,-0.00453 -1.92642,0.7235 -2.31631,1.84414c-0.38989,1.12064 -0.17831,2.41281 0.53593,3.27311c0.71425,0.8603 1.79025,1.11903 2.72557,0.65535c0.93532,-0.46367 1.54543,-1.55827 1.54544,-2.77265c0.00001,-1.65247 -1.11359,-2.99379 -2.49064,-2.99996zM2.50936,5.20517c-1.03037,0 -1.86564,-1.00233 -1.86564,-2.23877c0,-1.23644 0.83528,-2.23877 1.86564,-2.23877c1.03037,0 1.86564,1.00233 1.86564,2.23877c0,1.23644 -0.83528,2.23877 -1.86564,2.23877z" vector-effect="non-scaling-stroke"/></defs><path style="stroke-width: 0; stroke-linecap: butt; stroke-linejoin: miter; fill: rgb(255, 255, 255);" d="M2.50936,0.00002c-1.01198,-0.00453 -1.92642,0.7235 -2.31631,1.84414c-0.38989,1.12064 -0.17831,2.41281 0.53593,3.27311c0.71425,0.8603 1.79025,1.11903 2.72557,0.65535c0.93532,-0.46367 1.54543,-1.55827 1.54544,-2.77265c0.00001,-1.65247 -1.11359,-2.99379 -2.49064,-2.99996zM2.50936,5.20517c-1.03037,0 -1.86564,-1.00233 -1.86564,-2.23877c0,-1.23644 0.83528,-2.23877 1.86564,-2.23877c1.03037,0 1.86564,1.00233 1.86564,2.23877c0,1.23644 -0.83528,2.23877 -1.86564,2.23877z" transform="translate(248, 8) rotate(0)" vector-effect="non-scaling-stroke"/></g><g><defs><path id="path-1745477551488318" d="M13.796933333330283 50.744463701136176 C13.796933333330283 50.744463701136176 35.841666666658746 49.151550163681904 35.841666666658746 49.151550163681904 C35.841666666658746 49.151550163681904 49.900033333322305 59.18351627190451 49.900033333322305 59.18351627190451 C49.900033333322305 59.18351627190451 30.891299999993176 61.988060851145804 30.891299999993176 61.988060851145804 C30.891299999993176 61.988060851145804 13.796933333330283 50.744463701136176 13.796933333330283 50.744463701136176 Z" vector-effect="non-scaling-stroke"/></defs> <path style="stroke-width: 0; stroke-linecap: butt; stroke-linejoin: miter; fill: rgb(35, 31, 32);" d="M0 32.75640284999039 C0 32.75640284999039 22.044733333328452 31.163489312536115 22.044733333328452 31.163489312536115 C22.044733333328452 31.163489312536115 36.103099999992025 41.19545542075872 36.103099999992025 41.19545542075872 C36.103099999992025 41.19545542075872 17.094366666662893 44.000000000000014 17.094366666662893 44.000000000000014 C17.094366666662893 44.000000000000014 0 32.75640284999039 0 32.75640284999039 Z" vector-effect="non-scaling-stroke"/></g><g><defs><path id="path-1745477551487316" d="M35.824799999992145 49.143077219333726 C35.824799999992145 49.143077219333726 49.9000333333224 59.183516271904494 49.9000333333224 59.183516271904494 C49.9000333333224 59.183516271904494 49.9000333333224 27.28288080107838 49.9000333333224 27.28288080107838 C49.9000333333224 27.28288080107838 33.99476666665922 19.76737916425958 33.99476666665922 19.76737916425958 C33.99476666665922 19.76737916425958 35.824799999992145 49.143077219333726 35.824799999992145 49.143077219333726 Z" vector-effect="non-scaling-stroke"/></defs> <path style="stroke-width: 0; stroke-linecap: butt; stroke-linejoin: miter; fill: rgb(215, 31, 48);" d="M22.027866666661765 31.15501636818795 C22.027866666661765 31.15501636818795 36.103099999992025 41.19545542075872 36.103099999992025 41.19545542075872 C36.103099999992025 41.19545542075872 36.103099999992025 9.294819949932602 36.103099999992025 9.294819949932602 C36.103099999992025 9.294819949932602 20.197833333328845 1.779318313113805 20.197833333328845 1.779318313113805 C20.197833333328845 1.779318313113805 22.027866666661765 31.15501636818795 22.027866666661765 31.15501636818795 Z" vector-effect="non-scaling-stroke"/></g><g><defs><path id="path-1745477551486314" d="M59.69113333332006 17.988060851145768 C59.69113333332006 17.988060851145768 34.601966666658974 19.225110725977274 34.601966666658974 19.225110725977274 C34.601966666658974 19.225110725977274 50.304833333322144 26.664355863662614 50.304833333322144 26.664355863662614 C50.304833333322144 26.664355863662614 79.1383999999824 24.13941844791064 79.1383999999824 24.13941844791064 C79.1383999999824 24.13941844791064 59.69113333332006 17.988060851145768 59.69113333332006 17.988060851145768 Z" vector-effect="non-scaling-stroke"/></defs> <path style="stroke-width: 0; stroke-linecap: butt; stroke-linejoin: miter; fill: rgb(215, 31, 48);" d="M45.89419999998981 0 C45.89419999998981 0 20.80503333332871 1.2370498748315057 20.80503333332871 1.2370498748315057 C20.80503333332871 1.2370498748315057 36.50789999999188 8.676295012516846 36.50789999999188 8.676295012516846 C36.50789999999188 8.676295012516846 65.34146666665214 6.151357596764868 65.34146666665214 6.151357596764868 C65.34146666665214 6.151357596764868 45.89419999998981 0 45.89419999998981 0 Z" vector-effect="non-scaling-stroke"/></g><g><defs><path id="path-1745477551486312" d="M77.92399999998274 45.9064124783362 C77.92399999998274 45.9064124783362 77.30836666664953 54.67590987868282 77.30836666664953 54.67590987868282 C77.30836666664953 54.67590987868282 50.718066666655425 59.31908338147504 50.718066666655425 59.31908338147504 C50.718066666655425 59.31908338147504 50.718066666655425 27.41844791064894 50.718066666655425 27.41844791064894 C50.718066666655425 27.41844791064894 79.40826666664907 24.75794338532639 79.40826666664907 24.75794338532639 C79.40826666664907 24.75794338532639 78.78419999998253 33.518967841324844 78.78419999998253 33.518967841324844 C78.78419999998253 33.518967841324844 58.36709999998706 36.09474292316579 58.36709999998706 36.09474292316579 C58.36709999998706 36.09474292316579 58.35866666665373 37.77238590410166 58.35866666665373 37.77238590410166 C58.35866666665373 37.77238590410166 78.6661333333159 35.24744848834969 78.6661333333159 35.24744848834969 C78.6661333333159 35.24744848834969 78.04206666664938 44.169458886963206 78.04206666664938 44.169458886963206 C78.04206666664938 44.169458886963206 58.31649999998708 47.2536106296938 58.31649999998708 47.2536106296938 C58.31649999998708 47.2536106296938 58.31649999998708 48.97361833237048 58.31649999998708 48.97361833237048 C58.31649999998708 48.97361833237048 77.92399999998274 45.9064124783362 77.92399999998274 45.9064124783362 Z" vector-effect="non-scaling-stroke"/></defs> <path style="stroke-width: 0; stroke-linecap: butt; stroke-linejoin: miter; fill: rgb(215, 31, 48);" d="M64.12706666665247 27.918351627190432 C64.12706666665247 27.918351627190432 63.511433333319246 36.687849027537055 63.511433333319246 36.687849027537055 C63.511433333319246 36.687849027537055 36.921133333325145 41.33102253032928 36.921133333325145 41.33102253032928 C36.921133333325145 41.33102253032928 36.921133333325145 9.430387059503175 36.921133333325145 9.430387059503175 C36.921133333325145 9.430387059503175 65.61133333331878 6.769882534180624 65.61133333331878 6.769882534180624 C65.61133333331878 6.769882534180624 64.98726666665226 15.530906990179076 64.98726666665226 15.530906990179076 C64.98726666665226 15.530906990179076 44.570166666656775 18.10668207202002 44.570166666656775 18.10668207202002 C44.570166666656775 18.10668207202002 44.561733333323446 19.784325052955893 44.561733333323446 19.784325052955893 C44.561733333323446 19.784325052955893 64.8691999999856 17.25938763720393 64.8691999999856 17.25938763720393 C64.8691999999856 17.25938763720393 64.24513333331907 26.181398035817438 64.24513333331907 26.181398035817438 C64.24513333331907 26.181398035817438 44.5195666666568 29.265549778548035 44.5195666666568 29.265549778548035 C44.5195666666568 29.265549778548035 44.5195666666568 30.985557481224717 44.5195666666568 30.985557481224717 C44.5195666666568 30.985557481224717 64.12706666665247 27.918351627190432 64.12706666665247 27.918351627190432 Z" vector-effect="non-scaling-stroke"/></g></svg>