<svg version="1.2" xmlns="http://www.w3.org/2000/svg" xmlns:xlink="http://www.w3.org/1999/xlink" overflow="visible" preserveAspectRatio="none" viewBox="0 0 1487 623" width="1487" height="623"><g transform="translate(0, 0)"><defs><path id="path-1745313172784855" d="M1469.7373461012312 1037.013801456257 C1469.7373461012312 1037.013801456257 259.7130053665653 1233.4450177941553 259.7130053665653 1233.4450177941553 C259.7130053665653 1233.4450177941553 227.67715458276325 1238.013801456257 221.57865937072506 1237.013801456257 C215.48016415868688 1236.013801456257 193 1225.3921487276546 193 1225.3921487276546 C193 1225.3921487276546 -17.02024857236347 1115.013801456257 -17.02024857236347 1115.013801456257 C-17.02024857236347 1115.013801456257 -16 614 -16 614 C-16 614 1469.4373461012312 613.713801456257 1469.4373461012312 613.713801456257 C1469.4373461012312 613.713801456257 1469.7373461012312 1037.013801456257 1469.7373461012312 1037.013801456257 Z" vector-effect="non-scaling-stroke"/></defs><g transform="translate(17.02024857236347, -613.713801456257)"><path style="stroke: rgb(140, 140, 140); stroke-width: 0; stroke-linecap: butt; stroke-linejoin: miter; fill: rgb(250, 250, 250);" d="M1469.7373461012312 1037.013801456257 C1469.7373461012312 1037.013801456257 259.7130053665653 1233.4450177941553 259.7130053665653 1233.4450177941553 C259.7130053665653 1233.4450177941553 227.67715458276325 1238.013801456257 221.57865937072506 1237.013801456257 C215.48016415868688 1236.013801456257 193 1225.3921487276546 193 1225.3921487276546 C193 1225.3921487276546 -17.02024857236347 1115.013801456257 -17.02024857236347 1115.013801456257 C-17.02024857236347 1115.013801456257 -16 614 -16 614 C-16 614 1469.4373461012312 613.713801456257 1469.4373461012312 613.713801456257 C1469.4373461012312 613.713801456257 1469.7373461012312 1037.013801456257 1469.7373461012312 1037.013801456257 Z" vector-effect="non-scaling-stroke"/></g></g></svg>