<svg version="1.2" xmlns="http://www.w3.org/2000/svg" xmlns:xlink="http://www.w3.org/1999/xlink" overflow="visible" preserveAspectRatio="none" viewBox="0 0 1167 229" width="1167" height="229"><g transform="translate(0, 0)"><defs><path id="path-1745313172785857" d="M1314 519 C1314 519 255.51844807935277 693.4312163378984 255.51844807935277 693.4312163378984 C255.51844807935277 693.4312163378984 238.2225454968241 697.0132172666251 222 695 C205.7774545031759 692.9867827333749 190.62826609205635 685.3783472713976 190.62826609205635 685.3783472713976 C190.62826609205635 685.3783472713976 147.18343745604443 662.1706396666904 147.18343745604443 662.1706396666904 C147.18343745604443 662.1706396666904 242 646 242 646 C242 646 1314 467 1314 467 C1314 467 1314 519 1314 519 Z" vector-effect="non-scaling-stroke"/></defs><g transform="translate(-147.18343745604443, -467)"><path d="M1314 519 C1314 519 255.51844807935277 693.4312163378984 255.51844807935277 693.4312163378984 C255.51844807935277 693.4312163378984 238.2225454968241 697.0132172666251 222 695 C205.7774545031759 692.9867827333749 190.62826609205635 685.3783472713976 190.62826609205635 685.3783472713976 C190.62826609205635 685.3783472713976 147.18343745604443 662.1706396666904 147.18343745604443 662.1706396666904 C147.18343745604443 662.1706396666904 242 646 242 646 C242 646 1314 467 1314 467 C1314 467 1314 519 1314 519 Z" style="stroke: rgb(140, 140, 140); stroke-width: 0; stroke-linecap: butt; stroke-linejoin: miter; fill: rgb(242, 154, 54);" vector-effect="non-scaling-stroke"/></g></g></svg>