<svg version="1.2" xmlns="http://www.w3.org/2000/svg" xmlns:xlink="http://www.w3.org/1999/xlink" overflow="visible" preserveAspectRatio="none" viewBox="0 0 1462 264" width="1462" height="264"><g transform="translate(0, 0)"><defs><path id="path-1745313172786860" d="M1446 497 C1446 497 375.91844807935274 693.0312163378984 375.91844807935274 693.0312163378984 C375.91844807935274 693.0312163378984 358.6225454968241 696.6132172666252 342.4 694.6 C326.1774545031759 692.5867827333749 311.02826609205636 684.9783472713976 311.02826609205636 684.9783472713976 C311.02826609205636 684.9783472713976 -16 515 -16 515 C-16 515 -16 761 -16 761 C-16 761 1446 761 1446 761 C1446 761 1446 497 1446 497 Z" vector-effect="non-scaling-stroke"/></defs><g transform="translate(16, -497)"><path style="stroke: rgb(140, 140, 140); stroke-width: 0; stroke-linecap: butt; stroke-linejoin: miter; fill: rgb(255, 255, 255);" d="M1446 497 C1446 497 375.91844807935274 693.0312163378984 375.91844807935274 693.0312163378984 C375.91844807935274 693.0312163378984 358.6225454968241 696.6132172666252 342.4 694.6 C326.1774545031759 692.5867827333749 311.02826609205636 684.9783472713976 311.02826609205636 684.9783472713976 C311.02826609205636 684.9783472713976 -16 515 -16 515 C-16 515 -16 761 -16 761 C-16 761 1446 761 1446 761 C1446 761 1446 497 1446 497 Z" vector-effect="non-scaling-stroke"/></g></g></svg>