<svg version="1.2" xmlns="http://www.w3.org/2000/svg" xmlns:xlink="http://www.w3.org/1999/xlink" overflow="visible" preserveAspectRatio="none" viewBox="0 0 1486 644" width="1486" height="644"><g transform="translate(0, 0)"><defs><path id="path-1745313172784853" d="M-16.26265389876881 761 C-16.26265389876881 761 1193.761686835897 564.5687836621016 1193.761686835897 564.5687836621016 C1193.761686835897 564.5687836621016 1225.7975376196991 560 1231.8960328317373 561 C1237.9945280437755 562 1259.7170975288675 572.6216527286024 1259.7170975288675 572.6216527286024 C1259.7170975288675 572.6216527286024 1469.737346101231 683 1469.737346101231 683 C1469.737346101231 683 1470.037346101231 1205 1470.037346101231 1205 C1470.037346101231 1205 -15.96265389876881 1205 -15.96265389876881 1205 C-15.96265389876881 1205 -16.26265389876881 761 -16.26265389876881 761 Z" vector-effect="non-scaling-stroke"/></defs><g transform="translate(16.26265389876881, -560.8569007281285)"><path style="stroke: rgb(140, 140, 140); stroke-width: 0; stroke-linecap: butt; stroke-linejoin: miter; fill: rgb(250, 250, 250);" d="M-16.26265389876881 761 C-16.26265389876881 761 1193.761686835897 564.5687836621016 1193.761686835897 564.5687836621016 C1193.761686835897 564.5687836621016 1225.7975376196991 560 1231.8960328317373 561 C1237.9945280437755 562 1259.7170975288675 572.6216527286024 1259.7170975288675 572.6216527286024 C1259.7170975288675 572.6216527286024 1469.737346101231 683 1469.737346101231 683 C1469.737346101231 683 1470.037346101231 1205 1470.037346101231 1205 C1470.037346101231 1205 -15.96265389876881 1205 -15.96265389876881 1205 C-15.96265389876881 1205 -16.26265389876881 761 -16.26265389876881 761 Z" vector-effect="non-scaling-stroke"/></g></g></svg>