<svg version="1.2" xmlns="http://www.w3.org/2000/svg" xmlns:xlink="http://www.w3.org/1999/xlink" overflow="visible" preserveAspectRatio="none" viewBox="0 0 46.0207648149328 43.57678096050324" width="46.0207648149328" height="43.57678096050324"><g transform="translate(0, 0)"><g transform="translate(0.0000032700058779635763, 1.2212453270876722e-15) rotate(0)"><path style="stroke-width: 0; stroke-linecap: butt; stroke-linejoin: miter; fill: rgb(212, 31, 53);" d="M44.31559,29.76086c-0.86,-0.05 -2.68,1 -3.21,1.2c-2.01489,1.05791 -3.96199,2.2402 -5.83,3.54c-0.10782,0.10418 -0.23769,0.18279 -0.38,0.23c-0.7136,0.47791 -1.51083,0.81716 -2.35,1c-3.80729,0.71411 -7.66711,1.11213 -11.54,1.19h-0.38c-0.31392,0.00837 -0.58453,-0.21928 -0.63,-0.53c-0.03531,-0.33041 0.20033,-0.6283 0.53,-0.67l10.19,-0.91c1.17911,-0.18476 2.01377,-1.25103 1.91,-2.44c-0.11613,-1.187 -1.1494,-2.07014 -2.34,-2l-9,-0.09c-0.74551,-0.01129 -1.48587,-0.12571 -2.2,-0.34c-3.57722,-1.26421 -7.51435,-1.02243 -10.91,0.67c-0.40741,-0.70743 -1.18635,-1.11637 -2,-1.05l-3.92,0.29c-0.63534,0.02814 -1.23244,0.3115 -1.656,0.78589c-0.42356,0.47439 -0.63774,1.09965 -0.594,1.73411l0.62,9c0.09597,1.30787 1.23182,2.29168 2.54,2.2l3.92,-0.29c0.79394,-0.04002 1.4888,-0.54645 1.77,-1.29l17.15,0.71c1.85473,0.24018 3.7386,-0.09124 5.4,-0.95l0.48,-0.29l13,-7.89c0.65977,-0.37056 1.0828,-1.0542 1.12,-1.81c0.0651,-0.49417 -0.08117,-0.99288 -0.40287,-1.3736c-0.32171,-0.38072 -0.78902,-0.60815 -1.28713,-0.6264zM4.61559,41.36086c-0.73422,-0.02743 -1.30942,-0.64098 -1.28948,-1.37544c0.01995,-0.73446 0.6276,-1.31589 1.36223,-1.30343c0.73463,0.01246 1.32222,0.61416 1.31725,1.34887c-0.00787,0.36072 -0.15876,0.70354 -0.41945,0.95298c-0.2607,0.24944 -0.60983,0.38507 -0.97055,0.37702zM34.61559,32.90086v-0.77c-0.03898,-0.30463 -0.10252,-0.60561 -0.19,-0.9v0c1.38,-0.77 4.06,-2.11 5.49,-2.73c0.68719,-0.31573 1.49027,-0.24342 2.11,0.19c-0.50731,0.19108 -1.00168,0.41489 -1.48,0.67c-1.904,0.98249 -3.75338,2.06741 -5.54,3.25c-0.10951,0.10499 -0.22648,0.20192 -0.35,0.29zM32.61559,28.90086c0.9,-0.48 2.91,-1.15 3.82,-1.53c0.68531,-0.32643 1.49403,-0.2536 2.11,0.19c-1.06,0.48 -3.11,1.24 -4.07,1.77l-0.67,0.38c-0.05304,0.06181 -0.11757,0.11275 -0.19,0.15c-0.25044,-0.36098 -0.56175,-0.67567 -0.92,-0.93zM14.00559,20.37086c-0.08767,0.48809 0.04215,0.99013 0.35544,1.37454c0.31329,0.38441 0.77882,0.61285 1.27456,0.62546l0.67,0.05c0.74415,0.01506 1.38851,0.52076 1.58,1.24l0.19,0.67c0.13434,0.47772 0.46958,0.87352 0.91868,1.08463c0.4491,0.21112 0.96776,0.21672 1.42132,0.01537l0.62,-0.29c0.69097,-0.28926 1.48898,-0.11769 2,0.43l0.48,0.53c0.34038,0.36416 0.81653,0.57086 1.315,0.57086c0.49847,0 0.97462,-0.20671 1.315,-0.57086l0.43,-0.53c0.48704,-0.58488 1.30056,-0.78013 2,-0.48l0.62,0.24c0.46144,0.18667 0.98035,0.16922 1.42821,-0.04804c0.44786,-0.21726 0.78277,-0.614 0.92179,-1.09196l0.19,-0.67c0.18737,-0.72958 0.82768,-1.25236 1.58,-1.29l0.67,-0.05c0.50154,-0.02594 0.9674,-0.26732 1.27785,-0.66208c0.31044,-0.39476 0.43518,-0.9044 0.34215,-1.39792l-0.14,-0.67c-0.14875,-0.73026 0.20138,-1.47124 0.86,-1.82l0.62,-0.33c0.43465,-0.24123 0.7462,-0.65593 0.85686,-1.14056c0.11066,-0.48463 0.01,-0.99346 -0.27686,-1.39944l-0.39,-0.57c-0.42886,-0.61971 -0.42886,-1.44029 0,-2.06l0.39,-0.57c0.29643,-0.40668 0.39743,-0.92379 0.27583,-1.41212c-0.1216,-0.48833 -0.45331,-0.89769 -0.90583,-1.11788l-0.52,-0.27c-0.65659,-0.35426 -1.02055,-1.08218 -0.91,-1.82l0.1,-0.67c0.08767,-0.48809 -0.04215,-0.99013 -0.35544,-1.37454c-0.31329,-0.38441 -0.77882,-0.61285 -1.27456,-0.62546h-0.67c-0.74415,-0.01506 -1.38851,-0.52076 -1.58,-1.24l-0.19,-0.67c-0.13434,-0.47772 -0.46958,-0.87352 -0.91868,-1.08463c-0.4491,-0.21112 -0.96776,-0.21672 -1.42132,-0.01537l-0.62,0.29c-0.69097,0.28926 -1.48898,0.11769 -2,-0.43l-0.53,-0.55c-0.34038,-0.36416 -0.81653,-0.57086 -1.315,-0.57086c-0.49847,0 -0.97462,0.20671 -1.315,0.57086l-0.37,0.53c-0.48704,0.58488 -1.30056,0.78013 -2,0.48l-0.62,-0.24c-0.46144,-0.18667 -0.98035,-0.16922 -1.42821,0.04804c-0.44786,0.21726 -0.78277,0.614 -0.92179,1.09196l-0.24,0.58c-0.19021,0.72777 -0.82889,1.24922 -1.58,1.29h-0.66c-0.50376,0.01695 -0.97473,0.25403 -1.28844,0.64856c-0.3137,0.39453 -0.43856,0.90681 -0.34156,1.40144l0.14,0.67c0.15582,0.7311 -0.19625,1.47617 -0.86,1.82l-0.67,0.34c-0.4441,0.24433 -0.7587,0.67112 -0.8607,1.16763c-0.10199,0.4965 0.01888,1.01276 0.3307,1.41237l0.38,0.57c0.42886,0.61971 0.42886,1.44029 0,2.06l-0.33,0.53c-0.30071,0.40425 -0.40537,0.92158 -0.28545,1.41092c0.11992,0.48934 0.45191,0.89967 0.90545,1.11908l0.62,0.34c0.65276,0.35293 1.01607,1.07556 0.91,1.81zM18.88559,10.90086l3.73,-0.29l1.44,-3.49c0.12327,-0.30009 0.41557,-0.49603 0.74,-0.49603c0.32443,0 0.61673,0.19593 0.74,0.49603l1.47,3.49l3.73,0.29c0.32322,0.01847 0.60142,0.23469 0.69912,0.54333c0.0977,0.30865 -0.00541,0.64557 -0.25912,0.84667l-2.88,2.47l0.9,3.63c0.07925,0.31379 -0.0409,0.64418 -0.30321,0.83375c-0.26231,0.18957 -0.61372,0.19997 -0.88679,0.02625l-3.21,-2l-3.2,2.06c-0.27414,0.16296 -0.61889,0.14753 -0.87737,-0.03928c-0.25848,-0.1868 -0.38133,-0.50929 -0.31263,-0.82072l0.9,-3.69l-2.87,-2.43c-0.22791,-0.22535 -0.30772,-0.56076 -0.20573,-0.86462c0.10199,-0.30385 0.36801,-0.52318 0.68573,-0.56538z" vector-effect="non-scaling-stroke"/></g><defs><path id="path-1745313172614307" d="M44.31559,29.76086c-0.86,-0.05 -2.68,1 -3.21,1.2c-2.01489,1.05791 -3.96199,2.2402 -5.83,3.54c-0.10782,0.10418 -0.23769,0.18279 -0.38,0.23c-0.7136,0.47791 -1.51083,0.81716 -2.35,1c-3.80729,0.71411 -7.66711,1.11213 -11.54,1.19h-0.38c-0.31392,0.00837 -0.58453,-0.21928 -0.63,-0.53c-0.03531,-0.33041 0.20033,-0.6283 0.53,-0.67l10.19,-0.91c1.17911,-0.18476 2.01377,-1.25103 1.91,-2.44c-0.11613,-1.187 -1.1494,-2.07014 -2.34,-2l-9,-0.09c-0.74551,-0.01129 -1.48587,-0.12571 -2.2,-0.34c-3.57722,-1.26421 -7.51435,-1.02243 -10.91,0.67c-0.40741,-0.70743 -1.18635,-1.11637 -2,-1.05l-3.92,0.29c-0.63534,0.02814 -1.23244,0.3115 -1.656,0.78589c-0.42356,0.47439 -0.63774,1.09965 -0.594,1.73411l0.62,9c0.09597,1.30787 1.23182,2.29168 2.54,2.2l3.92,-0.29c0.79394,-0.04002 1.4888,-0.54645 1.77,-1.29l17.15,0.71c1.85473,0.24018 3.7386,-0.09124 5.4,-0.95l0.48,-0.29l13,-7.89c0.65977,-0.37056 1.0828,-1.0542 1.12,-1.81c0.0651,-0.49417 -0.08117,-0.99288 -0.40287,-1.3736c-0.32171,-0.38072 -0.78902,-0.60815 -1.28713,-0.6264zM4.61559,41.36086c-0.73422,-0.02743 -1.30942,-0.64098 -1.28948,-1.37544c0.01995,-0.73446 0.6276,-1.31589 1.36223,-1.30343c0.73463,0.01246 1.32222,0.61416 1.31725,1.34887c-0.00787,0.36072 -0.15876,0.70354 -0.41945,0.95298c-0.2607,0.24944 -0.60983,0.38507 -0.97055,0.37702zM34.61559,32.90086v-0.77c-0.03898,-0.30463 -0.10252,-0.60561 -0.19,-0.9v0c1.38,-0.77 4.06,-2.11 5.49,-2.73c0.68719,-0.31573 1.49027,-0.24342 2.11,0.19c-0.50731,0.19108 -1.00168,0.41489 -1.48,0.67c-1.904,0.98249 -3.75338,2.06741 -5.54,3.25c-0.10951,0.10499 -0.22648,0.20192 -0.35,0.29zM32.61559,28.90086c0.9,-0.48 2.91,-1.15 3.82,-1.53c0.68531,-0.32643 1.49403,-0.2536 2.11,0.19c-1.06,0.48 -3.11,1.24 -4.07,1.77l-0.67,0.38c-0.05304,0.06181 -0.11757,0.11275 -0.19,0.15c-0.25044,-0.36098 -0.56175,-0.67567 -0.92,-0.93zM14.00559,20.37086c-0.08767,0.48809 0.04215,0.99013 0.35544,1.37454c0.31329,0.38441 0.77882,0.61285 1.27456,0.62546l0.67,0.05c0.74415,0.01506 1.38851,0.52076 1.58,1.24l0.19,0.67c0.13434,0.47772 0.46958,0.87352 0.91868,1.08463c0.4491,0.21112 0.96776,0.21672 1.42132,0.01537l0.62,-0.29c0.69097,-0.28926 1.48898,-0.11769 2,0.43l0.48,0.53c0.34038,0.36416 0.81653,0.57086 1.315,0.57086c0.49847,0 0.97462,-0.20671 1.315,-0.57086l0.43,-0.53c0.48704,-0.58488 1.30056,-0.78013 2,-0.48l0.62,0.24c0.46144,0.18667 0.98035,0.16922 1.42821,-0.04804c0.44786,-0.21726 0.78277,-0.614 0.92179,-1.09196l0.19,-0.67c0.18737,-0.72958 0.82768,-1.25236 1.58,-1.29l0.67,-0.05c0.50154,-0.02594 0.9674,-0.26732 1.27785,-0.66208c0.31044,-0.39476 0.43518,-0.9044 0.34215,-1.39792l-0.14,-0.67c-0.14875,-0.73026 0.20138,-1.47124 0.86,-1.82l0.62,-0.33c0.43465,-0.24123 0.7462,-0.65593 0.85686,-1.14056c0.11066,-0.48463 0.01,-0.99346 -0.27686,-1.39944l-0.39,-0.57c-0.42886,-0.61971 -0.42886,-1.44029 0,-2.06l0.39,-0.57c0.29643,-0.40668 0.39743,-0.92379 0.27583,-1.41212c-0.1216,-0.48833 -0.45331,-0.89769 -0.90583,-1.11788l-0.52,-0.27c-0.65659,-0.35426 -1.02055,-1.08218 -0.91,-1.82l0.1,-0.67c0.08767,-0.48809 -0.04215,-0.99013 -0.35544,-1.37454c-0.31329,-0.38441 -0.77882,-0.61285 -1.27456,-0.62546h-0.67c-0.74415,-0.01506 -1.38851,-0.52076 -1.58,-1.24l-0.19,-0.67c-0.13434,-0.47772 -0.46958,-0.87352 -0.91868,-1.08463c-0.4491,-0.21112 -0.96776,-0.21672 -1.42132,-0.01537l-0.62,0.29c-0.69097,0.28926 -1.48898,0.11769 -2,-0.43l-0.53,-0.55c-0.34038,-0.36416 -0.81653,-0.57086 -1.315,-0.57086c-0.49847,0 -0.97462,0.20671 -1.315,0.57086l-0.37,0.53c-0.48704,0.58488 -1.30056,0.78013 -2,0.48l-0.62,-0.24c-0.46144,-0.18667 -0.98035,-0.16922 -1.42821,0.04804c-0.44786,0.21726 -0.78277,0.614 -0.92179,1.09196l-0.24,0.58c-0.19021,0.72777 -0.82889,1.24922 -1.58,1.29h-0.66c-0.50376,0.01695 -0.97473,0.25403 -1.28844,0.64856c-0.3137,0.39453 -0.43856,0.90681 -0.34156,1.40144l0.14,0.67c0.15582,0.7311 -0.19625,1.47617 -0.86,1.82l-0.67,0.34c-0.4441,0.24433 -0.7587,0.67112 -0.8607,1.16763c-0.10199,0.4965 0.01888,1.01276 0.3307,1.41237l0.38,0.57c0.42886,0.61971 0.42886,1.44029 0,2.06l-0.33,0.53c-0.30071,0.40425 -0.40537,0.92158 -0.28545,1.41092c0.11992,0.48934 0.45191,0.89967 0.90545,1.11908l0.62,0.34c0.65276,0.35293 1.01607,1.07556 0.91,1.81zM18.88559,10.90086l3.73,-0.29l1.44,-3.49c0.12327,-0.30009 0.41557,-0.49603 0.74,-0.49603c0.32443,0 0.61673,0.19593 0.74,0.49603l1.47,3.49l3.73,0.29c0.32322,0.01847 0.60142,0.23469 0.69912,0.54333c0.0977,0.30865 -0.00541,0.64557 -0.25912,0.84667l-2.88,2.47l0.9,3.63c0.07925,0.31379 -0.0409,0.64418 -0.30321,0.83375c-0.26231,0.18957 -0.61372,0.19997 -0.88679,0.02625l-3.21,-2l-3.2,2.06c-0.27414,0.16296 -0.61889,0.14753 -0.87737,-0.03928c-0.25848,-0.1868 -0.38133,-0.50929 -0.31263,-0.82072l0.9,-3.69l-2.87,-2.43c-0.22791,-0.22535 -0.30772,-0.56076 -0.20573,-0.86462c0.10199,-0.30385 0.36801,-0.52318 0.68573,-0.56538z" vector-effect="non-scaling-stroke"/></defs></g></svg>