<svg version="1.2" xmlns="http://www.w3.org/2000/svg" xmlns:xlink="http://www.w3.org/1999/xlink" overflow="visible" preserveAspectRatio="none" viewBox="0 0 68 44" width="68" height="44"><g transform="translate(4, 4)"><defs><path id="path-1745824311672579" d="M0 18 C0 8.0588745036 8.0588745036 0 18 0 C18 0 42.00000000000002 0 42.00000000000002 0 C51.94112549640002 0 60.00000000000002 8.0588745036 60.00000000000002 18 C60.00000000000002 18 60.00000000000002 18 60.00000000000002 18 C60.00000000000002 27.941125496399998 51.94112549640002 36 42.00000000000002 36 C42.00000000000002 36 18 36 18 36 C8.0588745036 36 0 27.941125496399998 0 18 C0 18 0 18 0 18 Z" vector-effect="non-scaling-stroke"/></defs><g transform="translate(0, 0)"><path style="stroke: rgb(212, 31, 53); stroke-width: 4; stroke-linecap: butt; stroke-linejoin: miter; fill: rgba(0, 0, 0, 0.5);" d="M0 18 C0 8.0588745036 8.0588745036 0 18 0 C18 0 42.00000000000002 0 42.00000000000002 0 C51.94112549640002 0 60.00000000000002 8.0588745036 60.00000000000002 18 C60.00000000000002 18 60.00000000000002 18 60.00000000000002 18 C60.00000000000002 27.941125496399998 51.94112549640002 36 42.00000000000002 36 C42.00000000000002 36 18 36 18 36 C8.0588745036 36 0 27.941125496399998 0 18 C0 18 0 18 0 18 Z" vector-effect="non-scaling-stroke"/></g></g></svg>