<svg height="610" overflow="visible" viewBox="0 0 580 610" width="580" xmlns="http://www.w3.org/2000/svg"><g><defs><path id="path-1745313172750743" d="M0 0 C0 0 580 0 580 0 C580 0 580 560.0000000000006 580 560.0000000000006 C580 587.6142374900006 557.61423749 610.0000000000006 530 610.0000000000006 C530 610.0000000000006 0 610.0000000000006 0 610.0000000000006 C0 610.0000000000006 0 0 0 0 Z" vector-effect="non-scaling-stroke"/><filter height="106.55737704918033%" id="filter-17453131729703680" width="106.89655172413792%" x="-3.4482758620689653%" y="-3.278688524590164%" vector-effect="non-scaling-stroke"><feFlood flood-opacity="0" result="backgroundFix" vector-effect="non-scaling-stroke"/><feColorMatrix in="SourceAlpha" result="hardAlpha" type="matrix" values="0 0 0 0 0 0 0 0 0 0 0 0 0 0 0 0 0 0 127 0" vector-effect="non-scaling-stroke"/><feOffset dx="0" dy="0" vector-effect="non-scaling-stroke"/><feGaussianBlur stdDeviation="7.166666666666667" vector-effect="non-scaling-stroke"/><feColorMatrix in="" result="" type="matrix" values="0 0 0 0 0  0 0 0 0 0  0 0 0 0 0  0 0 0 0.1 0" vector-effect="non-scaling-stroke"/><feBlend in2="backgroundFix" mode="normal" result="shadowOuter_1" vector-effect="non-scaling-stroke"/></filter></defs> <path style="stroke: rgb(140, 140, 140); stroke-width: 0; stroke-linecap: butt; stroke-linejoin: miter; fill: rgb(255, 255, 255);" d="M0 0 C0 0 580 0 580 0 C580 0 580 560.0000000000005 580 560.0000000000005 C580 587.6142374900005 557.61423749 610.0000000000005 530 610.0000000000005 C530 610.0000000000005 0 610.0000000000005 0 610.0000000000005 C0 610.0000000000005 0 0 0 0 Z" vector-effect="non-scaling-stroke"/></g></svg>