<svg height="38.960000000000036" overflow="visible" viewBox="0 0 38.960000000000036 38.960000000000036" width="38.960000000000036" xmlns="http://www.w3.org/2000/svg"><g><defs><path id="path-1745313172559121" d="M41.85 36.73 C41.85 36.73 39.48 36.73 39.48 36.73 C39.48 36.73 39.48 39.35 39.48 39.35 C39.48 39.35 44.48 39.35 44.48 39.35 C44.48 39.35 44.48 34.35 44.48 34.35 C44.48 34.35 41.85 34.35 41.85 34.35 C41.85 34.35 41.85 36.73 41.85 36.73 Z" vector-effect="non-scaling-stroke"/></defs> <path style="stroke-width: 0; stroke-linecap: butt; stroke-linejoin: miter; fill: rgb(212, 31, 53);" d="M36.33000000000004 31.209999999999923 C36.33000000000004 31.209999999999923 33.960000000000036 31.209999999999923 33.960000000000036 31.209999999999923 C33.960000000000036 31.209999999999923 33.960000000000036 33.82999999999993 33.960000000000036 33.82999999999993 C33.960000000000036 33.82999999999993 38.960000000000036 33.82999999999993 38.960000000000036 33.82999999999993 C38.960000000000036 33.82999999999993 38.960000000000036 28.829999999999927 38.960000000000036 28.829999999999927 C38.960000000000036 28.829999999999927 36.33000000000004 28.829999999999927 36.33000000000004 28.829999999999927 C36.33000000000004 28.829999999999927 36.33000000000004 31.209999999999923 36.33000000000004 31.209999999999923 Z" vector-effect="non-scaling-stroke"/></g><g><defs><path id="path-1745313172558119" d="M29.259999999999998 39.35 C29.259999999999998 39.35 29.259999999999998 36.73 29.259999999999998 36.73 C29.259999999999998 36.73 36.07 36.73 36.07 36.73 C36.07 36.73 36.07 39.35 36.07 39.35 C36.07 39.35 29.259999999999998 39.35 29.259999999999998 39.35 Z" vector-effect="non-scaling-stroke"/></defs> <path style="stroke-width: 0; stroke-linecap: butt; stroke-linejoin: miter; fill: rgb(212, 31, 53);" d="M23.74000000000001 33.83000000000004 C23.74000000000001 33.83000000000004 23.74000000000001 31.210000000000036 23.74000000000001 31.210000000000036 C23.74000000000001 31.210000000000036 30.550000000000068 31.210000000000036 30.550000000000068 31.210000000000036 C30.550000000000068 31.210000000000036 30.550000000000068 33.83000000000004 30.550000000000068 33.83000000000004 C30.550000000000068 33.83000000000004 23.74000000000001 33.83000000000004 23.74000000000001 33.83000000000004 Z" vector-effect="non-scaling-stroke"/></g><g><defs><path id="path-1745313172558117" d="M10.65 20.740000000000002 C10.65 20.740000000000002 10.65 13.930000000000001 10.65 13.930000000000001 C10.65 13.930000000000001 13.270000000000001 13.930000000000001 13.270000000000001 13.930000000000001 C13.270000000000001 13.930000000000001 13.270000000000001 20.740000000000002 13.270000000000001 20.740000000000002 C13.270000000000001 20.740000000000002 10.65 20.740000000000002 10.65 20.740000000000002 Z" vector-effect="non-scaling-stroke"/></defs> <path style="stroke-width: 0; stroke-linecap: butt; stroke-linejoin: miter; fill: rgb(212, 31, 53);" d="M5.130000000000109 15.220000000000027 C5.130000000000109 15.220000000000027 5.130000000000109 8.409999999999968 5.130000000000109 8.409999999999968 C5.130000000000109 8.409999999999968 7.750000000000114 8.409999999999968 7.750000000000114 8.409999999999968 C7.750000000000114 8.409999999999968 7.750000000000114 15.220000000000027 7.750000000000114 15.220000000000027 C7.750000000000114 15.220000000000027 5.130000000000109 15.220000000000027 5.130000000000109 15.220000000000027 Z" vector-effect="non-scaling-stroke"/></g><g><defs><path id="path-1745313172558115" d="M13.27 8.15 C13.27 8.15 15.65 8.15 15.65 8.15 C15.65 8.15 15.65 5.52 15.65 5.52 C15.65 5.52 10.65 5.52 10.65 5.52 C10.65 5.52 10.65 10.53 10.65 10.53 C10.65 10.53 13.27 10.53 13.27 10.53 C13.27 10.53 13.27 8.15 13.27 8.15 Z" vector-effect="non-scaling-stroke"/></defs> <path style="stroke-width: 0; stroke-linecap: butt; stroke-linejoin: miter; fill: rgb(212, 31, 53);" d="M7.750000000000114 2.6299999999999955 C7.750000000000114 2.6299999999999955 10.13000000000011 2.6299999999999955 10.13000000000011 2.6299999999999955 C10.13000000000011 2.6299999999999955 10.13000000000011 0 10.13000000000011 0 C10.13000000000011 0 5.130000000000109 0 5.130000000000109 0 C5.130000000000109 0 5.130000000000109 5.009999999999991 5.130000000000109 5.009999999999991 C5.130000000000109 5.009999999999991 7.750000000000114 5.009999999999991 7.750000000000114 5.009999999999991 C7.750000000000114 5.009999999999991 7.750000000000114 2.6299999999999955 7.750000000000114 2.6299999999999955 Z" vector-effect="non-scaling-stroke"/></g><g><defs><path id="path-1745313172557113" d="M29.259999999999998 8.14 C29.259999999999998 8.14 29.259999999999998 5.52 29.259999999999998 5.52 C29.259999999999998 5.52 36.07 5.52 36.07 5.52 C36.07 5.52 36.07 8.14 36.07 8.14 C36.07 8.14 29.259999999999998 8.14 29.259999999999998 8.14 Z" vector-effect="non-scaling-stroke"/></defs> <path style="stroke-width: 0; stroke-linecap: butt; stroke-linejoin: miter; fill: rgb(212, 31, 53);" d="M23.74000000000001 2.6200000000000045 C23.74000000000001 2.6200000000000045 23.74000000000001 0 23.74000000000001 0 C23.74000000000001 0 30.550000000000068 0 30.550000000000068 0 C30.550000000000068 0 30.550000000000068 2.6200000000000045 30.550000000000068 2.6200000000000045 C30.550000000000068 2.6200000000000045 23.74000000000001 2.6200000000000045 23.74000000000001 2.6200000000000045 Z" vector-effect="non-scaling-stroke"/></g><g><defs><path id="path-1745313172557111" d="M19.05 8.14 C19.05 8.14 19.05 5.52 19.05 5.52 C19.05 5.52 25.860000000000003 5.52 25.860000000000003 5.52 C25.860000000000003 5.52 25.860000000000003 8.14 25.860000000000003 8.14 C25.860000000000003 8.14 19.05 8.14 19.05 8.14 Z" vector-effect="non-scaling-stroke"/></defs> <path style="stroke-width: 0; stroke-linecap: butt; stroke-linejoin: miter; fill: rgb(212, 31, 53);" d="M13.529999999999973 2.6200000000000045 C13.529999999999973 2.6200000000000045 13.529999999999973 0 13.529999999999973 0 C13.529999999999973 0 20.340000000000032 0 20.340000000000032 0 C20.340000000000032 0 20.340000000000032 2.6200000000000045 20.340000000000032 2.6200000000000045 C20.340000000000032 2.6200000000000045 13.529999999999973 2.6200000000000045 13.529999999999973 2.6200000000000045 Z" vector-effect="non-scaling-stroke"/></g><g><defs><path id="path-1745313172557109" d="M39.48 5.52 C39.48 5.52 39.48 8.15 39.48 8.15 C39.48 8.15 41.85 8.15 41.85 8.15 C41.85 8.15 41.85 10.53 41.85 10.53 C41.85 10.53 44.48 10.53 44.48 10.53 C44.48 10.53 44.48 5.52 44.48 5.52 C44.48 5.52 39.48 5.52 39.48 5.52 Z" vector-effect="non-scaling-stroke"/></defs> <path style="stroke-width: 0; stroke-linecap: butt; stroke-linejoin: miter; fill: rgb(212, 31, 53);" d="M33.960000000000036 0 C33.960000000000036 0 33.960000000000036 2.6299999999999955 33.960000000000036 2.6299999999999955 C33.960000000000036 2.6299999999999955 36.33000000000004 2.6299999999999955 36.33000000000004 2.6299999999999955 C36.33000000000004 2.6299999999999955 36.33000000000004 5.009999999999991 36.33000000000004 5.009999999999991 C36.33000000000004 5.009999999999991 38.960000000000036 5.009999999999991 38.960000000000036 5.009999999999991 C38.960000000000036 5.009999999999991 38.960000000000036 0 38.960000000000036 0 C38.960000000000036 0 33.960000000000036 0 33.960000000000036 0 Z" vector-effect="non-scaling-stroke"/></g><g><defs><path id="path-1745313172556107" d="M41.85 20.740000000000002 C41.85 20.740000000000002 41.85 13.930000000000001 41.85 13.930000000000001 C41.85 13.930000000000001 44.470000000000006 13.930000000000001 44.470000000000006 13.930000000000001 C44.470000000000006 13.930000000000001 44.470000000000006 20.740000000000002 44.470000000000006 20.740000000000002 C44.470000000000006 20.740000000000002 41.85 20.740000000000002 41.85 20.740000000000002 Z" vector-effect="non-scaling-stroke"/></defs> <path style="stroke-width: 0; stroke-linecap: butt; stroke-linejoin: miter; fill: rgb(212, 31, 53);" d="M36.32999999999993 15.220000000000027 C36.32999999999993 15.220000000000027 36.32999999999993 8.409999999999968 36.32999999999993 8.409999999999968 C36.32999999999993 8.409999999999968 38.94999999999993 8.409999999999968 38.94999999999993 8.409999999999968 C38.94999999999993 8.409999999999968 38.94999999999993 15.220000000000027 38.94999999999993 15.220000000000027 C38.94999999999993 15.220000000000027 36.32999999999993 15.220000000000027 36.32999999999993 15.220000000000027 Z" vector-effect="non-scaling-stroke"/></g><g><defs><path id="path-1745313172556105" d="M41.85 30.950000000000003 C41.85 30.950000000000003 41.85 24.14 41.85 24.14 C41.85 24.14 44.470000000000006 24.14 44.470000000000006 24.14 C44.470000000000006 24.14 44.470000000000006 30.950000000000003 44.470000000000006 30.950000000000003 C44.470000000000006 30.950000000000003 41.85 30.950000000000003 41.85 30.950000000000003 Z" vector-effect="non-scaling-stroke"/></defs> <path style="stroke-width: 0; stroke-linecap: butt; stroke-linejoin: miter; fill: rgb(212, 31, 53);" d="M36.32999999999993 25.430000000000064 C36.32999999999993 25.430000000000064 36.32999999999993 18.620000000000005 36.32999999999993 18.620000000000005 C36.32999999999993 18.620000000000005 38.94999999999993 18.620000000000005 38.94999999999993 18.620000000000005 C38.94999999999993 18.620000000000005 38.94999999999993 25.430000000000064 38.94999999999993 25.430000000000064 C38.94999999999993 25.430000000000064 36.32999999999993 25.430000000000064 36.32999999999993 25.430000000000064 Z" vector-effect="non-scaling-stroke"/></g><g><defs><path id="path-1745313172556103" d="M28.98 14.38 C28.98 14.38 33.77 14.38 33.77 14.38 C33.77 14.38 24.06 24.06 24.06 24.06 C24.06 24.06 5.52 24.06 5.52 24.06 C5.52 24.06 5.52 44.48 5.52 44.48 C5.52 44.48 25.94 44.48 25.94 44.48 C25.94 44.48 25.94 25.94 25.94 25.94 C25.94 25.94 35.62 16.23 35.62 16.23 C35.62 16.23 35.62 21.02 35.62 21.02 C35.62 21.02 38.29 21.02 38.29 21.02 C38.29 21.02 38.29 11.71 38.29 11.71 C38.29 11.71 28.98 11.71 28.98 11.71 C28.98 11.71 28.98 14.38 28.98 14.38 Z" vector-effect="non-scaling-stroke"/></defs> <path style="stroke-width: 0; stroke-linecap: butt; stroke-linejoin: miter; fill: rgb(212, 31, 53);" d="M23.460000000000036 8.860000000000014 C23.460000000000036 8.860000000000014 28.25 8.860000000000014 28.25 8.860000000000014 C28.25 8.860000000000014 18.539999999999964 18.539999999999964 18.539999999999964 18.539999999999964 C18.539999999999964 18.539999999999964 0 18.539999999999964 0 18.539999999999964 C0 18.539999999999964 0 38.960000000000036 0 38.960000000000036 C0 38.960000000000036 20.420000000000073 38.960000000000036 20.420000000000073 38.960000000000036 C20.420000000000073 38.960000000000036 20.420000000000073 20.420000000000073 20.420000000000073 20.420000000000073 C20.420000000000073 20.420000000000073 30.100000000000023 10.710000000000036 30.100000000000023 10.710000000000036 C30.100000000000023 10.710000000000036 30.100000000000023 15.5 30.100000000000023 15.5 C30.100000000000023 15.5 32.76999999999998 15.5 32.76999999999998 15.5 C32.76999999999998 15.5 32.76999999999998 6.190000000000055 32.76999999999998 6.190000000000055 C32.76999999999998 6.190000000000055 23.460000000000036 6.190000000000055 23.460000000000036 6.190000000000055 C23.460000000000036 6.190000000000055 23.460000000000036 8.860000000000014 23.460000000000036 8.860000000000014 Z" vector-effect="non-scaling-stroke"/></g></svg>