<svg height="40.361371553070285" overflow="visible" viewBox="0 0 34.80022008909282 40.361371553070285" width="34.80022008909282" xmlns="http://www.w3.org/2000/svg"><g><defs><path id="path-174531317255181" d="M29.60001,1.1l-6.42,-1.1c-0.67294,2.62149 -3.07485,4.425 -5.78,4.34c-2.70013,0.08975 -5.09613,-1.71871 -5.75,-4.34l-6.45,1.1c-2.99949,0.48174 -5.20403,3.07208 -5.2,6.11v7.16c0.02392,0.32647 0.28353,0.58608 0.61,0.61h33.58c0.32647,-0.02392 0.58608,-0.28353 0.61,-0.61v-7.16c0.0253,-3.04569 -2.18944,-5.64802 -5.2,-6.11zM18.04001,13.63c0.00268,0.16351 -0.0604,0.32125 -0.17509,0.43781c-0.11469,0.11657 -0.27138,0.18221 -0.43491,0.18219c-0.16616,0.00902 -0.32818,-0.05376 -0.44488,-0.17237c-0.1167,-0.11862 -0.17684,-0.28164 -0.16512,-0.44763v-1.22c-0.01127,-0.15973 0.04517,-0.31683 0.15551,-0.43288c0.11034,-0.11604 0.2644,-0.18033 0.42449,-0.17712c0.33689,0 0.61,0.27311 0.61,0.61zM18.04001,10.63c0,0.33689 -0.27311,0.61 -0.61,0.61c-0.16431,0.00874 -0.32459,-0.05271 -0.44094,-0.16906c-0.11635,-0.11635 -0.1778,-0.27663 -0.16906,-0.44094v-1.28c-0.00874,-0.16431 0.05271,-0.32459 0.16906,-0.44094c0.11635,-0.11635 0.27663,-0.1778 0.44094,-0.16906c0.33689,0 0.61,0.27311 0.61,0.61zM18.04001,7.57c0,0.33689 -0.27311,0.61 -0.61,0.61c-0.16519,0.01206 -0.32745,-0.04832 -0.44456,-0.16544c-0.11711,-0.11711 -0.1775,-0.27938 -0.16544,-0.44456v-1.27c-0.01172,-0.16599 0.04841,-0.32901 0.16512,-0.44763c0.1167,-0.11862 0.27873,-0.18139 0.44488,-0.17237c0.16353,-0.00002 0.32022,0.06562 0.43491,0.18219c0.11469,0.11657 0.17777,0.27431 0.17509,0.43781z" vector-effect="non-scaling-stroke"/></defs><path style="stroke-width: 0; stroke-linecap: butt; stroke-linejoin: miter; fill: rgb(212, 31, 53);" d="M29.60001,1.1l-6.42,-1.1c-0.67294,2.62149 -3.07485,4.425 -5.78,4.34c-2.70013,0.08975 -5.09613,-1.71871 -5.75,-4.34l-6.45,1.1c-2.99949,0.48174 -5.20403,3.07208 -5.2,6.11v7.16c0.02392,0.32647 0.28353,0.58608 0.61,0.61h33.58c0.32647,-0.02392 0.58608,-0.28353 0.61,-0.61v-7.16c0.0253,-3.04569 -2.18944,-5.64802 -5.2,-6.11zM18.04001,13.63c0.00268,0.16351 -0.0604,0.32125 -0.17509,0.43781c-0.11469,0.11657 -0.27138,0.18221 -0.43491,0.18219c-0.16616,0.00902 -0.32818,-0.05376 -0.44488,-0.17237c-0.1167,-0.11862 -0.17684,-0.28164 -0.16512,-0.44763v-1.22c-0.01127,-0.15973 0.04517,-0.31683 0.15551,-0.43288c0.11034,-0.11604 0.2644,-0.18033 0.42449,-0.17712c0.33689,0 0.61,0.27311 0.61,0.61zM18.04001,10.63c0,0.33689 -0.27311,0.61 -0.61,0.61c-0.16431,0.00874 -0.32459,-0.05271 -0.44094,-0.16906c-0.11635,-0.11635 -0.1778,-0.27663 -0.16906,-0.44094v-1.28c-0.00874,-0.16431 0.05271,-0.32459 0.16906,-0.44094c0.11635,-0.11635 0.27663,-0.1778 0.44094,-0.16906c0.33689,0 0.61,0.27311 0.61,0.61zM18.04001,7.57c0,0.33689 -0.27311,0.61 -0.61,0.61c-0.16519,0.01206 -0.32745,-0.04832 -0.44456,-0.16544c-0.11711,-0.11711 -0.1775,-0.27938 -0.16544,-0.44456v-1.27c-0.01172,-0.16599 0.04841,-0.32901 0.16512,-0.44763c0.1167,-0.11862 0.27873,-0.18139 0.44488,-0.17237c0.16353,-0.00002 0.32022,0.06562 0.43491,0.18219c0.11469,0.11657 0.17777,0.27431 0.17509,0.43781z" transform="translate(-0.0000044837397581432015, 25.381371553070267) rotate(0)" vector-effect="non-scaling-stroke"/></g><g><defs><path id="path-174531317255179" d="M5.80681,24.09c0.8784,0.79722 2.02379,1.23611 3.21,1.23c2.42533,0.11411 4.49445,-1.73697 4.65,-4.16v-1.84c6.88,-6.32 6.08,-19.32 -4.65,-19.32c-5.81,0 -9.29,4.16 -9,9.17v0c0.12888,3.81834 1.70132,7.44566 4.4,10.15c0.17,1.04 -0.51,3.06 1.39,4.77zM12.46681,21.16c-0.1538,1.75653 -1.69175,3.06267 -3.45,2.93c-1.74698,0.11552 -3.26613,-1.18598 -3.42,-2.93v-0.92c1.01992,0.66842 2.20165,1.04851 3.42,1.1c1.20506,-0.02088 2.3759,-0.40419 3.36,-1.1v0c0.06186,0.30271 0.09202,0.61104 0.09,0.92zM1.27681,9.16c0.24878,-0.68985 0.82083,-1.21329 1.53,-1.4c3.18,-0.8 6.12,3.73 14,2.62c-0.6,4.17 -3.72,9.62 -7.79,9.62c-4.37,0.12 -7.61,-6.3 -7.74,-10.89z" vector-effect="non-scaling-stroke"/></defs><path style="stroke-width: 0; stroke-linecap: butt; stroke-linejoin: miter; fill: rgb(212, 31, 53);" d="M5.80681,24.09c0.8784,0.79722 2.02379,1.23611 3.21,1.23c2.42533,0.11411 4.49445,-1.73697 4.65,-4.16v-1.84c6.88,-6.32 6.08,-19.32 -4.65,-19.32c-5.81,0 -9.29,4.16 -9,9.17v0c0.12888,3.81834 1.70132,7.44566 4.4,10.15c0.17,1.04 -0.51,3.06 1.39,4.77zM12.46681,21.16c-0.1538,1.75653 -1.69175,3.06267 -3.45,2.93c-1.74698,0.11552 -3.26613,-1.18598 -3.42,-2.93v-0.92c1.01992,0.66842 2.20165,1.04851 3.42,1.1c1.20506,-0.02088 2.3759,-0.40419 3.36,-1.1v0c0.06186,0.30271 0.09202,0.61104 0.09,0.92zM1.27681,9.16c0.24878,-0.68985 0.82083,-1.21329 1.53,-1.4c3.18,-0.8 6.12,3.73 14,2.62c-0.6,4.17 -3.72,9.62 -7.79,9.62c-4.37,0.12 -7.61,-6.3 -7.74,-10.89z" transform="translate(8.383187414428903, 3.181371553070221) rotate(0)" vector-effect="non-scaling-stroke"/></g><g><defs><path id="path-174531317255177" d="M13 22.13 C13.056407789090068 22.47906297671634 13.249492040867997 22.791296086404863 13.536585810929875 22.997703372070266 C13.823679580991753 23.20411065773567 14.181148286826112 23.287699935872975 14.53 23.23 C14.53 23.23 16.1 23 16.1 23 C15.064680818222142 20.573183009866014 14.645573499683874 17.927997474829397 14.88 15.3 C14.88 15.3 14.82 15.3 14.82 15.3 C15.19204731296079 9.982129310450834 19.67024420487825 5.891045705850399 25 6 C30.29670937318803 5.9052796380612165 34.74823259388194 9.957700776899804 35.15 15.24 C35.15 15.24 35.089999999999996 15.24 35.089999999999996 15.24 C35.4395649928221 17.877661124483133 35.06269340557063 20.560710222713787 34 23 C34 23 35.53 23.25 35.53 23.25 C35.87885171317389 23.30769993587297 36.23632041900825 23.224110657735665 36.523414189070124 23.01770337207026 C36.810507959132 22.811296086404862 37.00359221090993 22.49906297671634 37.06 22.15 C37.06 22.15 37.85 17.07 37.85 17.07 C37.91050359703988 16.72077625354063 37.82802672390292 16.361892366592144 37.62113208060204 16.074120726364548 C37.41423743730115 15.786349086136953 37.10030855514789 15.59386860436359 36.75 15.540000000000001 C36.75 15.540000000000001 36.45 15.540000000000001 36.45 15.540000000000001 C36.14367419335431 9.46595722968376 31.08103709516845 4.726090880989229 25 4.82 C18.935474141833932 4.726692850363682 13.89067295070793 9.461725547297739 13.6 15.52 C13.6 15.52 13.29 15.58 13.29 15.58 C12.94093702328366 15.636407789090068 12.628703913595137 15.829492040867997 12.422296627929734 16.116585810929877 C12.215889342264333 16.403679580991753 12.132300064127026 16.761148286826113 12.19 17.11 C12.19 17.11 13 22.13 13 22.13 Z" vector-effect="non-scaling-stroke"/></defs> <path style="stroke-width: 0; stroke-linecap: butt; stroke-linejoin: miter; fill: rgb(212, 31, 53);" d="M5.400001029774103 17.311371553070217 C5.456408818864247 17.660434529786585 5.6494930706421655 17.97266763947505 5.936586840703967 18.179074925140526 C6.2236806107657685 18.38548221080589 6.581149316600204 18.4690714889432 6.9300010297740755 18.41137155307024 C6.9300010297740755 18.41137155307024 8.500001029774012 18.18137155307022 8.500001029774012 18.18137155307022 C7.464681847996189 15.754554562936278 7.045574529458008 13.109369027899675 7.280001029774212 10.481371553070176 C7.280001029774212 10.481371553070176 7.220001029774039 10.481371553070176 7.220001029774039 10.481371553070176 C7.59204834273487 5.163500863521108 12.070245234652248 1.0724172589206091 17.400001029774103 1.1813715530702211 C22.696710402962026 1.0866511911314092 27.148233623656097 5.139072329970077 27.550001029774194 10.42137155307023 C27.550001029774194 10.42137155307023 27.49000102977402 10.42137155307023 27.49000102977402 10.42137155307023 C27.839566022596273 13.059032677553319 27.4626944353447 15.742081775783959 26.400001029774103 18.18137155307022 C26.400001029774103 18.18137155307022 27.930001029774076 18.43137155307022 27.930001029774076 18.43137155307022 C28.278852742947947 18.489071488943182 28.636321448782383 18.40548221080587 28.923415218844184 18.199074925140508 C29.210508988906213 17.99266763947503 29.40359324068413 17.680434529786567 29.460001029774048 17.3313715530702 C29.460001029774048 17.3313715530702 30.250001029774012 12.251371553070271 30.250001029774012 12.251371553070271 C30.31050462681401 11.902147806610856 30.228027753676997 11.543263919662422 30.02113311037624 11.255492279434748 C29.814238467075256 10.967720639207187 29.50030958492198 10.775240157433814 29.150001029774103 10.721371553070185 C29.150001029774103 10.721371553070185 28.85000102977415 10.721371553070185 28.85000102977415 10.721371553070185 C28.543675223128503 4.647328782754016 23.481038124942643 -0.0925375659405745 17.400001029774103 0.0013715530702711476 C11.335475171608095 -0.09193559656614525 6.290673980482097 4.6430971003679815 6.000001029774012 10.701371553070203 C6.000001029774012 10.701371553070203 5.690001029774066 10.761371553070262 5.690001029774066 10.761371553070262 C5.340938053057698 10.817779342160293 5.028704943369348 11.010863593938211 4.822297657703757 11.297957364000126 C4.615890372038393 11.585051134061928 4.5323010939011965 11.942519839896363 4.590001029774157 12.291371553070235 C4.590001029774157 12.291371553070235 5.400001029774103 17.311371553070217 5.400001029774103 17.311371553070217 Z" vector-effect="non-scaling-stroke"/></g></svg>