<svg height="610.0000000000005" overflow="visible" viewBox="0 0 580 610.0000000000005" width="580" xmlns="http://www.w3.org/2000/svg"><g><defs><path id="path-1745313172746734" d="M0 0 C0 0 580 0 580 0 C580 0 580 560.0000000000006 580 560.0000000000006 C580 587.6142374900006 557.61423749 610.0000000000006 530 610.0000000000006 C530 610.0000000000006 0 610.0000000000006 0 610.0000000000006 C0 610.0000000000006 0 0 0 0 Z" vector-effect="non-scaling-stroke"/><filter height="106.55737704918033%" id="filter-17453131729743885" width="106.89655172413792%" x="-3.4482758620689653%" y="-3.278688524590164%" vector-effect="non-scaling-stroke"><feFlood flood-opacity="0" result="backgroundFix" vector-effect="non-scaling-stroke"/><feColorMatrix in="SourceAlpha" result="hardAlpha" type="matrix" values="0 0 0 0 0 0 0 0 0 0 0 0 0 0 0 0 0 0 127 0" vector-effect="non-scaling-stroke"/><feOffset dx="0" dy="0" vector-effect="non-scaling-stroke"/><feGaussianBlur stdDeviation="7.166666666666667" vector-effect="non-scaling-stroke"/><feColorMatrix in="" result="" type="matrix" values="0 0 0 0 0  0 0 0 0 0  0 0 0 0 0  0 0 0 0.1 0" vector-effect="non-scaling-stroke"/><feBlend in2="backgroundFix" mode="normal" result="shadowOuter_1" vector-effect="non-scaling-stroke"/></filter></defs> <path style="stroke: rgb(140, 140, 140); stroke-width: 0; stroke-linecap: butt; stroke-linejoin: miter; fill: rgb(255, 255, 255);" d="M0 0 C0 0 580 0 580 0 C580 0 580 560.0000000000005 580 560.0000000000005 C580 587.6142374900005 557.61423749 610.0000000000005 530 610.0000000000005 C530 610.0000000000005 0 610.0000000000005 0 610.0000000000005 C0 610.0000000000005 0 0 0 0 Z" vector-effect="non-scaling-stroke"/></g><g><defs><path id="path-1745313172745732" d="M0 100.00000000000001 C0 44.771525020000006 44.771525020000006 0 100 0 C100 0 580 0 580 0 C580 0 580 244.90558711340316 580 244.90558711340316 C580 269.8105436518555 559.9177134486807 292.07747791910253 535.1449575542753 294.6401768047307 C535.1449575542753 294.6401768047307 0 350.00000000000057 0 350.00000000000057 C0 350.00000000000057 0 100.00000000000001 0 100.00000000000001 Z" vector-effect="non-scaling-stroke"/></defs> <path style="stroke: rgb(140, 140, 140); stroke-width: 0; stroke-linecap: butt; stroke-linejoin: miter; fill: rgb(176, 176, 176);" d="M0 100.00000000000001 C0 44.771525020000006 44.771525020000006 0 100 0 C100 0 580 0 580 0 C580 0 580 244.90558711340304 580 244.90558711340304 C580 269.81054365185537 559.9177134486807 292.0774779191024 535.1449575542753 294.6401768047306 C535.1449575542753 294.6401768047306 0 350.00000000000045 0 350.00000000000045 C0 350.00000000000045 0 100.00000000000001 0 100.00000000000001 Z" vector-effect="non-scaling-stroke"/></g></svg>